<svg width="16" height="18" viewBox="0 0 16 18" fill="none" xmlns="http://www.w3.org/2000/svg">
<g clip-path="url(#clip0_853_881)">
<path d="M6 16.2857H9.42857C9.42857 17.2286 8.65714 18 7.71429 18C6.77143 18 6 17.2286 6 16.2857ZM15.4286 14.5714V15.4286H0V14.5714L1.71429 12.8571V7.71429C1.71429 5.05714 3.42857 2.74286 6 1.97143V1.71429C6 0.771429 6.77143 0 7.71429 0C8.65714 0 9.42857 0.771429 9.42857 1.71429V1.97143C12 2.74286 13.7143 5.05714 13.7143 7.71429V12.8571L15.4286 14.5714ZM12 7.71429C12 5.31429 10.1143 3.42857 7.71429 3.42857C5.31429 3.42857 3.42857 5.31429 3.42857 7.71429V13.7143H12V7.71429Z" fill="#232425"/>
</g>
<defs>
<clipPath id="clip0_853_881">
<rect width="15.4286" height="18" fill="white"/>
</clipPath>
</defs>
</svg>
