<svg width="25" height="22" viewBox="0 0 25 22" fill="none" xmlns="http://www.w3.org/2000/svg">
<g clip-path="url(#clip0_567_1542)">
<path d="M12.2222 17.7222C13.75 17.7222 15.0488 17.1873 16.1187 16.1174C17.1885 15.0476 17.723 13.7492 17.7222 12.2222C17.7222 10.6944 17.1873 9.39563 16.1174 8.32578C15.0476 7.25593 13.7492 6.72141 12.2222 6.72223C10.6944 6.72223 9.39563 7.25715 8.32578 8.327C7.25593 9.39686 6.72141 10.6953 6.72222 12.2222C6.72222 13.75 7.25715 15.0488 8.327 16.1187C9.39685 17.1885 10.6953 17.723 12.2222 17.7222ZM10.8778 10.8778L11.6722 9.16667C11.7741 8.9426 11.9574 8.83056 12.2222 8.83056C12.487 8.83056 12.6704 8.9426 12.7722 9.16667L13.5667 10.8778L15.2778 11.6722C15.5018 11.7741 15.6139 11.9574 15.6139 12.2222C15.6139 12.487 15.5018 12.6704 15.2778 12.7722L13.5667 13.5667L12.7722 15.2778C12.6704 15.5019 12.487 15.6139 12.2222 15.6139C11.9574 15.6139 11.7741 15.5019 11.6722 15.2778L10.8778 13.5667L9.16667 12.7722C8.94259 12.6704 8.83055 12.487 8.83055 12.2222C8.83055 11.9574 8.94259 11.7741 9.16667 11.6722L10.8778 10.8778ZM2.44445 22C1.77222 22 1.19656 21.7604 0.717446 21.2813C0.238335 20.8022 -0.000812739 20.227 2.07508e-06 19.5556V4.88889C2.07508e-06 4.21667 0.239558 3.64101 0.718668 3.1619C1.19778 2.68278 1.77304 2.44364 2.44445 2.44445H6.29444L7.82222 0.794452C8.0463 0.529637 8.31641 0.330822 8.63255 0.198007C8.9487 0.0651925 9.27911 -0.000807362 9.62378 7.45258e-06H14.8182C15.1645 7.45258e-06 15.4957 0.066415 15.8119 0.19923C16.128 0.332044 16.3977 0.530452 16.621 0.794452L18.15 2.44445H22C22.6722 2.44445 23.2479 2.68401 23.727 3.16312C24.2061 3.64223 24.4453 4.21749 24.4444 4.88889V19.5556C24.4444 20.2278 24.2049 20.8034 23.7258 21.2826C23.2467 21.7617 22.6714 22.0008 22 22H2.44445ZM22 19.5556V4.88889H2.44445V19.5556H22Z" fill="#0092EF"/>
</g>
<defs>
<clipPath id="clip0_567_1542">
<rect width="24.4444" height="22" fill="white"/>
</clipPath>
</defs>
</svg>
