<svg width="35" height="30" viewBox="0 0 35 30" fill="none" xmlns="http://www.w3.org/2000/svg">
<path d="M34.999 13.7496C35.0003 12.3141 34.6484 10.9004 33.9744 9.633C33.3004 8.36562 32.3249 7.28354 31.1339 6.48217C29.9429 5.68079 28.5731 5.18474 27.1452 5.03775C25.7173 4.89076 24.2751 5.09734 22.9459 5.63928C21.6166 6.18122 20.4412 7.04187 19.5231 8.14536C18.605 9.24884 17.9725 10.5613 17.6813 11.9669C17.3902 13.3725 17.4494 14.8282 17.8536 16.2056C18.2579 17.5829 18.9948 18.8397 19.9994 19.865V28.7491C19.9993 28.9623 20.0536 29.172 20.1573 29.3582C20.2611 29.5445 20.4107 29.7011 20.592 29.8132C20.7733 29.9253 20.9803 29.9892 21.1933 29.9987C21.4062 30.0083 21.6181 29.9633 21.8087 29.8679L26.2492 27.646L30.6897 29.8679C30.8804 29.9633 31.0922 30.0083 31.3052 29.9987C31.5181 29.9892 31.7251 29.9253 31.9064 29.8132C32.0877 29.7011 32.2374 29.5445 32.3411 29.3582C32.4448 29.172 32.4992 28.9623 32.499 28.7491V19.865C34.1022 18.2333 35 16.0371 34.999 13.7496ZM26.2492 7.49978C27.4853 7.49978 28.6937 7.86632 29.7214 8.55306C30.7492 9.2398 31.5503 10.2159 32.0233 11.3579C32.4963 12.4999 32.6201 13.7565 32.3789 14.9689C32.1378 16.1812 31.5426 17.2948 30.6685 18.1689C29.7945 19.0429 28.6808 19.6382 27.4685 19.8793C26.2562 20.1205 24.9995 19.9967 23.8575 19.5237C22.7155 19.0506 21.7394 18.2496 21.0527 17.2218C20.3659 16.194 19.9994 14.9857 19.9994 13.7496C19.9994 12.092 20.6579 10.5024 21.8299 9.3303C23.002 8.15824 24.5917 7.49978 26.2492 7.49978ZM26.8086 25.1305C26.6349 25.0436 26.4434 24.9984 26.2492 24.9984C26.055 24.9984 25.8635 25.0436 25.6899 25.1305L22.4993 26.7273V21.654C23.6711 22.2106 24.952 22.4993 26.2492 22.4993C27.5464 22.4993 28.8274 22.2106 29.9991 21.654V26.7273L26.8086 25.1305ZM17.4995 23.7493C17.4995 24.0808 17.3678 24.3987 17.1334 24.6331C16.899 24.8676 16.581 24.9993 16.2495 24.9993H2.49993C1.8369 24.9993 1.20104 24.7359 0.732211 24.267C0.263384 23.7982 0 23.1623 0 22.4993V2.49993C0 1.8369 0.263384 1.20104 0.732211 0.732211C1.20104 0.263384 1.8369 0 2.49993 0H29.9991C30.6621 0 31.298 0.263384 31.7668 0.732211C32.2356 1.20104 32.499 1.8369 32.499 2.49993C32.499 2.83144 32.3673 3.14937 32.1329 3.38378C31.8985 3.6182 31.5806 3.74989 31.2491 3.74989C30.9176 3.74989 30.5996 3.6182 30.3652 3.38378C30.1308 3.14937 29.9991 2.83144 29.9991 2.49993H2.49993V22.4993H16.2495C16.581 22.4993 16.899 22.631 17.1334 22.8654C17.3678 23.0998 17.4995 23.4178 17.4995 23.7493ZM14.9996 14.9996C14.9996 15.3311 14.8679 15.649 14.6334 15.8834C14.399 16.1178 14.0811 16.2495 13.7496 16.2495H7.49978C7.16827 16.2495 6.85033 16.1178 6.61592 15.8834C6.38151 15.649 6.24981 15.3311 6.24981 14.9996C6.24981 14.668 6.38151 14.3501 6.61592 14.1157C6.85033 13.8813 7.16827 13.7496 7.49978 13.7496H13.7496C14.0811 13.7496 14.399 13.8813 14.6334 14.1157C14.8679 14.3501 14.9996 14.668 14.9996 14.9996ZM14.9996 9.9997C14.9996 10.3312 14.8679 10.6491 14.6334 10.8836C14.399 11.118 14.0811 11.2497 13.7496 11.2497H7.49978C7.16827 11.2497 6.85033 11.118 6.61592 10.8836C6.38151 10.6491 6.24981 10.3312 6.24981 9.9997C6.24981 9.66819 6.38151 9.35026 6.61592 9.11584C6.85033 8.88143 7.16827 8.74974 7.49978 8.74974H13.7496C14.0811 8.74974 14.399 8.88143 14.6334 9.11584C14.8679 9.35026 14.9996 9.66819 14.9996 9.9997Z" fill="#232425"/>
</svg>
