<svg width="24" height="20" viewBox="0 0 24 20" fill="none" xmlns="http://www.w3.org/2000/svg">
<path d="M23.3326 9.16639C23.3335 8.20941 23.0989 7.26692 22.6496 6.422C22.2002 5.57708 21.5499 4.85569 20.7559 4.32144C19.962 3.7872 19.0487 3.45649 18.0968 3.3585C17.1448 3.2605 16.1834 3.39823 15.2973 3.75952C14.4111 4.12081 13.6274 4.69458 13.0154 5.43024C12.4033 6.16589 11.9816 7.04084 11.7876 7.97793C11.5935 8.91502 11.6329 9.88547 11.9024 10.8037C12.1719 11.722 12.6632 12.5598 13.3329 13.2434V19.1661C13.3328 19.3082 13.3691 19.448 13.4382 19.5722C13.5074 19.6963 13.6071 19.8007 13.728 19.8755C13.8489 19.9502 13.9869 19.9928 14.1288 19.9992C14.2708 20.0055 14.4121 19.9755 14.5392 19.9119L17.4995 18.4307L20.4598 19.9119C20.5869 19.9755 20.7281 20.0055 20.8701 19.9992C21.0121 19.9928 21.1501 19.9502 21.271 19.8755C21.3918 19.8007 21.4916 19.6963 21.5607 19.5722C21.6299 19.448 21.6661 19.3082 21.666 19.1661V13.2434C22.7348 12.1556 23.3333 10.6914 23.3326 9.16639ZM17.4995 4.99985C18.3235 4.99985 19.1291 5.24421 19.8143 5.70204C20.4995 6.15987 21.0335 6.81059 21.3489 7.57193C21.6642 8.33326 21.7467 9.17102 21.586 9.97925C21.4252 10.7875 21.0284 11.5299 20.4457 12.1126C19.863 12.6953 19.1206 13.0921 18.3123 13.2529C17.5041 13.4136 16.6663 13.3311 15.905 13.0158C15.1437 12.7004 14.493 12.1664 14.0351 11.4812C13.5773 10.796 13.3329 9.99046 13.3329 9.16639C13.3329 8.06136 13.7719 7.00158 14.5533 6.2202C15.3347 5.43882 16.3944 4.99985 17.4995 4.99985ZM17.8724 16.7537C17.7566 16.6957 17.6289 16.6656 17.4995 16.6656C17.37 16.6656 17.2423 16.6957 17.1266 16.7537L14.9996 17.8182V14.436C15.7807 14.8071 16.6347 14.9995 17.4995 14.9995C18.3643 14.9995 19.2182 14.8071 19.9994 14.436V17.8182L17.8724 16.7537ZM11.6663 15.8329C11.6663 16.0539 11.5785 16.2658 11.4222 16.4221C11.266 16.5784 11.054 16.6662 10.833 16.6662H1.66662C1.2246 16.6662 0.800692 16.4906 0.488141 16.178C0.175589 15.8655 0 15.4416 0 14.9996V1.66662C0 1.2246 0.175589 0.800692 0.488141 0.488141C0.800692 0.175589 1.2246 0 1.66662 0H19.9994C20.4414 0 20.8653 0.175589 21.1779 0.488141C21.4904 0.800692 21.666 1.2246 21.666 1.66662C21.666 1.88762 21.5782 2.09958 21.422 2.25585C21.2657 2.41213 21.0537 2.49993 20.8327 2.49993C20.6117 2.49993 20.3997 2.41213 20.2435 2.25585C20.0872 2.09958 19.9994 1.88762 19.9994 1.66662H1.66662V14.9996H10.833C11.054 14.9996 11.266 15.0873 11.4222 15.2436C11.5785 15.3999 11.6663 15.6119 11.6663 15.8329ZM9.9997 9.9997C9.9997 10.2207 9.91191 10.4327 9.75563 10.5889C9.59936 10.7452 9.3874 10.833 9.16639 10.833H4.99985C4.77884 10.833 4.56689 10.7452 4.41061 10.5889C4.25434 10.4327 4.16654 10.2207 4.16654 9.9997C4.16654 9.77869 4.25434 9.56674 4.41061 9.41046C4.56689 9.25419 4.77884 9.16639 4.99985 9.16639H9.16639C9.3874 9.16639 9.59936 9.25419 9.75563 9.41046C9.91191 9.56674 9.9997 9.77869 9.9997 9.9997ZM9.9997 6.66647C9.9997 6.88748 9.91191 7.09943 9.75563 7.25571C9.59936 7.41198 9.3874 7.49978 9.16639 7.49978H4.99985C4.77884 7.49978 4.56689 7.41198 4.41061 7.25571C4.25434 7.09943 4.16654 6.88748 4.16654 6.66647C4.16654 6.44546 4.25434 6.23351 4.41061 6.07723C4.56689 5.92095 4.77884 5.83316 4.99985 5.83316H9.16639C9.3874 5.83316 9.59936 5.92095 9.75563 6.07723C9.91191 6.23351 9.9997 6.44546 9.9997 6.66647Z" fill="white"/>
</svg>
