<svg width="30" height="30" viewBox="0 0 30 30" fill="none" xmlns="http://www.w3.org/2000/svg">
<g clip-path="url(#clip0_520_1735)">
<path d="M12.9 17.7L9.675 14.475C9.4 14.2 9.05 14.0625 8.625 14.0625C8.2 14.0625 7.85 14.2 7.575 14.475C7.3 14.75 7.1625 15.1 7.1625 15.525C7.1625 15.95 7.3 16.3 7.575 16.575L11.85 20.85C12.15 21.15 12.5 21.3 12.9 21.3C13.3 21.3 13.65 21.15 13.95 20.85L22.425 12.375C22.7 12.1 22.8375 11.75 22.8375 11.325C22.8375 10.9 22.7 10.55 22.425 10.275C22.15 10 21.8 9.8625 21.375 9.8625C20.95 9.8625 20.6 10 20.325 10.275L12.9 17.7ZM15 30C12.925 30 10.975 29.606 9.15 28.818C7.325 28.03 5.7375 26.9615 4.3875 25.6125C3.0375 24.2625 1.969 22.675 1.182 20.85C0.395 19.025 0.001 17.075 0 15C0 12.925 0.394 10.975 1.182 9.15C1.97 7.325 3.0385 5.7375 4.3875 4.3875C5.7375 3.0375 7.325 1.969 9.15 1.182C10.975 0.395 12.925 0.001 15 0C17.075 0 19.025 0.394 20.85 1.182C22.675 1.97 24.2625 3.0385 25.6125 4.3875C26.9625 5.7375 28.0315 7.325 28.8195 9.15C29.6075 10.975 30.001 12.925 30 15C30 17.075 29.606 19.025 28.818 20.85C28.03 22.675 26.9615 24.2625 25.6125 25.6125C24.2625 26.9625 22.675 28.0315 20.85 28.8195C19.025 29.6075 17.075 30.001 15 30Z" fill="#003E66"/>
</g>
<defs>
<clipPath id="clip0_520_1735">
<rect width="30" height="30" fill="white"/>
</clipPath>
</defs>
</svg>
