<svg id="Layer_1" data-name="Layer 1" xmlns="http://www.w3.org/2000/svg" viewBox="0 0 1000 1000"><defs><style>.cls-1{fill:#0192ee;}.cls-2{fill:#0092ef;}.cls-3{fill:#f7fafd;}.cls-4{fill:#f3f8fd;}.cls-5{fill:#f4f9fd;}.cls-6{fill:#eef5fd;}.cls-7{fill:#f1f7fd;}.cls-8{fill:#0593ee;}.cls-9{fill:#0693ee;}</style></defs><path class="cls-1" d="M875.1,504.15v70.1H523.9v-70.1Zm-150,25.1c-9.1-3.8-15.9-2.6-20.2,3.1-3.9,5.2-3.7,13.4.6,18.2,5.7,6.3,13.5,6.2,18.6,2.7l7.4,2v-36.9h-6.4v10.9Zm44,17.4-.7-1.4c-2.7,1-5.6,1.6-8,3.1-5,3.1-10.8.8-12.4-5.6h22.4c.4-8.5-4.5-14.7-12.1-15.8-8.1-1.2-15.2,3.5-17,11.3a14.2,14.2,0,0,0,9.6,16.4C758.5,557.05,766,553.75,769.1,546.65Zm-89-19.8c-8.3,0-15,6.2-15,14.2a14.7,14.7,0,0,0,14.8,14.5c8.3,0,14.8-6.2,14.8-14.3S688.6,527,680.1,526.85Zm-23.2,11.2.8-1.4a14.61,14.61,0,1,0-14.1,18.9,13.31,13.31,0,0,0,14-11.8c-3.2,1.3-6,2-8.1,3.6-3.5,2.6-8.2,2.8-11.2-.2a8.61,8.61,0,0,1-.4-11.6c2.7-3.2,7.1-3.5,10.8-1.3C651.5,535.65,654.2,537,656.9,538.05Zm-33.2-20.3c-6.6-.4-6.6-.4-8.7,4.7-.8,2-1.6,4-2.3,5.9l-12.5,31.1c4.7,1.4,7.7.5,8.7-4.4a12,12,0,0,1,1.3-3.1c4.4-11.3,8.9-22.6,13.5-34.2Zm197,23.2c-3.9,1.7-6.8,3.3-9.8,4.2-4.4,1.3-5.3,3.9-3.8,8.3,7-3.3,13.8-6.3,20.5-9.6a3.2,3.2,0,0,0,0-5.7c-6.8-3.4-13.7-6.5-20.6-9.7-1.4,4.6-.2,7.1,4.1,8.4C814.1,537.75,817,539.35,820.7,541Zm-227.8,11.2c1.6-4.8-.1-7.3-4.5-8.5-2.9-.8-5.5-2.4-9.1-4.1,3.9-1.7,6.7-3.3,9.7-4.2,4.5-1.3,5.2-4.1,3.9-8.3-7,3.3-13.9,6.4-20.7,9.8a3.17,3.17,0,0,0-1.4,4.2,3.39,3.39,0,0,0,1.5,1.4C579.1,545.75,585.9,548.85,592.9,552.15Zm186.5-25v27.3h5.9c.2-.4.4-.5.4-.6.1-4,.1-7.9.2-11.9.2-5.5,2.6-8,8-8.4l2.8-.3v-6l-10.5,1.9Z"/><path d="M125.3,453.05c.5-1,.7-2.3,1.5-2.9q87-69.6,174.1-139.2a1.85,1.85,0,0,1,.7-.2c12.8,10.2,25.8,20.5,38.8,30.8q67.35,53.4,134.6,106.8c1.1,1,2.2,2.1,3.2,3.2l-17.6,14-45.1,35.8-13.9,11c-1.2.8-2.4,1.6-3.5,2.5-17.3,13.7-34.6,27.5-51.9,41.2q-21.6,17.25-43.1,34.5l-2.4.7c-15.1-12-30.1-24-45.3-35.9q-27-21.3-54.2-42.5L187.3,502l-44.2-34.8Zm319-2L301.4,337.75,158.6,452l142.8,112.5Z"/><path class="cls-2" d="M401.6,512.35l13.9-11.1,45.1,35.6v-71.4l17.6-14c.1,1.1.3,2.2.3,3.4q0,46.2-.1,92.4a7.38,7.38,0,0,1-2.5,5.2Q389.65,620.4,303.1,688a20.15,20.15,0,0,1-1.9,1.3l-41.8-33.1Q194,604.4,128.6,552.55a8.51,8.51,0,0,1-3.7-7.4c.2-30.8.2-61.6.2-92.4L143,467v69.7l44.2-34.9,13.9,10.9-47.9,37.8,99.6,78.3,47.8-37.7,2.4-.7,47.7,38.4,99.6-78.3c-4.2-3.3-7.8-6-11.4-8.8C426.5,532.05,414.1,522.15,401.6,512.35Z"/><path d="M627.3,471.15h13.8c.1-2.1.2-4.1.3-6.3H656v20.2H612.5v-62h43.6v34.5H627.3Zm-.1-27.9H641v-6.4H627.2Z"/><path d="M874.4,423.05v34.4H845.8v13.6h13.8v-6.2h14.7v20.2H830.8v-62Zm-28.8,20.1h13.9v-6.3H845.6Z"/><path d="M706.9,485.15H663.5v-41.5h28.6v-6.8H663.6v-13.8H707v62.1Zm-28.8-27.3v13.2h14.1v-13.2Z"/><path d="M539.8,437.05v34H554c.1-2,.2-4,.3-6.2h14.3v20.2H525.3v-62h43.4v20.6H554.4c-.1-2.1-.2-4.2-.3-6.6Z"/><path d="M750.7,471.35v13.7H721.4v-48.2h-7.1V423h6.8v-13.7h15.2v13.5h14.3v13.8h-14v34.8Z"/><path d="M794.4,464.45h14.2v-41.4h14.9v40a4,4,0,0,1-1,2.6c-6.8,6.6-13.7,13.1-20.7,19.7-7-6.6-13.8-13-20.5-19.5a5.85,5.85,0,0,1-1.3-3.8c-.1-12.9-.1-25.8-.1-39.1h14.6Z"/><path d="M605,436.75H590.8v48.3H575.9V423H605v13.8Z"/><path d="M772.5,485.05H758.1v-62h14.4Z"/><path d="M772.6,402.35V416H758v-13.6Z"/><path class="cls-3" d="M725.1,529.25v-11h6.4v36.9l-7.4-2c-5.1,3.5-12.9,3.7-18.6-2.7-4.3-4.7-4.5-12.9-.6-18.2C709.2,526.65,716,525.45,725.1,529.25Zm-16.1,12a8,8,0,0,0,7.7,8.3h.5a8.4,8.4,0,0,0-.2-16.8C712.3,532.75,709,536.35,709,541.25Z"/><path class="cls-4" d="M769.1,546.65c-3.1,7.1-10.6,10.4-18.3,8a14.2,14.2,0,0,1-9.6-16.4,14.79,14.79,0,0,1,17-11.3c7.6,1.1,12.5,7.3,12.1,15.8H747.9c1.6,6.4,7.5,8.7,12.4,5.6,2.4-1.5,5.3-2.1,8-3.1Zm-21-9H763c-4.1-7.1-10.4-7.1-14.9,0Z"/><path class="cls-5" d="M680.1,526.85c8.5.1,14.7,6.1,14.7,14.3,0,8-6.5,14.3-14.8,14.3A14.68,14.68,0,0,1,665.3,541C665.2,533.05,671.8,526.85,680.1,526.85Zm8,14.4a8.16,8.16,0,0,0-7.8-8.5H680a8.41,8.41,0,0,0-.2,16.8,8.15,8.15,0,0,0,8.3-8v-.3Z"/><path class="cls-4" d="M656.9,538.05a74.9,74.9,0,0,1-8.1-3.8c-3.7-2.2-8.1-1.9-10.8,1.3a8.61,8.61,0,0,0,.4,11.6c3,3,7.7,2.8,11.2.2,2.1-1.6,4.9-2.2,8.1-3.6a13.39,13.39,0,0,1-14,11.8c-7.5-.2-13.8-5.9-14.4-13.1a14.62,14.62,0,0,1,28.4-5.8Z"/><path class="cls-4" d="M623.7,517.75c-4.6,11.6-9.1,22.9-13.6,34.2-.5,1-.9,2.1-1.3,3.1-1,4.9-4,5.8-8.7,4.4l12.5-31.1c.8-2,1.6-4,2.3-5.9C617,517.35,617,517.35,623.7,517.75Z"/><path class="cls-6" d="M820.7,541c-3.7-1.6-6.6-3.2-9.7-4.2-4.3-1.3-5.5-3.8-4.1-8.4,6.9,3.2,13.8,6.3,20.6,9.7a3.28,3.28,0,0,1,1.4,4.4,3.16,3.16,0,0,1-1.4,1.4c-6.7,3.3-13.5,6.4-20.5,9.6-1.4-4.4-.5-7,3.8-8.3C814,544.25,816.9,542.65,820.7,541Z"/><path class="cls-7" d="M592.9,552.15c-7-3.3-13.8-6.4-20.6-9.7a3.19,3.19,0,0,1-1.6-4.2,2.94,2.94,0,0,1,1.4-1.5c6.8-3.4,13.8-6.5,20.7-9.8,1.3,4.2.6,7-3.9,8.3-3,.9-5.9,2.5-9.7,4.2,3.6,1.7,6.3,3.3,9.1,4.1C592.9,544.85,594.5,547.35,592.9,552.15Z"/><path class="cls-4" d="M779.4,527.15l6.8,2,10.5-1.9v6l-2.8.3c-5.4.4-7.9,2.9-8,8.4-.1,4-.1,7.9-.2,11.9,0,.1-.1.2-.4.6h-5.9Z"/><path class="cls-8" d="M709,541.25c0-4.9,3.3-8.5,8-8.5a8.4,8.4,0,0,1,.2,16.8,8,8,0,0,1-8.2-7.8Z"/><path class="cls-8" d="M748.1,537.65c4.5-7.2,10.8-7.1,14.9,0Z"/><path class="cls-9" d="M688.1,541.25a8.13,8.13,0,0,1-7.9,8.3h-.3a8.41,8.41,0,0,1,.2-16.8,8.15,8.15,0,0,1,8.1,8.2C688.1,541,688.1,541.15,688.1,541.25Z"/><path class="cls-2" d="M277.6,520c-29.6-23-58.3-45.3-87.7-68.1l87.7-70.7c0,9.3.1,17.6-.1,25.9,0,1.2-1.5,2.6-2.6,3.5q-22.35,18.9-44.9,37.7c-1.5,1.3-3,2.6-5,4.2,1.2,1,2.2,1.9,3.3,2.7,15.4,11.9,30.7,23.8,46.1,35.6a7.23,7.23,0,0,1,3.3,6.7C277.4,504.75,277.6,511.85,277.6,520Z"/><path class="cls-2" d="M327,520c0-9-.2-16.9.1-24.8.1-1.4,1.8-3,3.1-4.1q22.95-18,46-35.7c1-.8,1.9-1.6,3.3-2.8-3.4-2.9-6.6-5.6-9.8-8.3-13-10.9-26-21.9-39.2-32.7a9.26,9.26,0,0,1-3.7-8.3c.3-7,.1-14.1.1-22.1l87.7,70.6Z"/><path d="M302.3,413.55c15.9,12.5,31.6,24.8,47.7,37.5l-47.6,37.5-47.8-37.5C270.6,438.45,286.3,426.15,302.3,413.55Z"/></svg>