<svg width="25" height="25" viewBox="0 0 25 25" fill="none" xmlns="http://www.w3.org/2000/svg">
<g clip-path="url(#clip0_567_1570)">
<path d="M12.5 22.5C6.9875 22.5 2.5 18.0125 2.5 12.5C2.5 6.9875 6.9875 2.5 12.5 2.5C18.0125 2.5 22.5 6.9875 22.5 12.5C22.5 18.0125 18.0125 22.5 12.5 22.5ZM12.5 0C5.5875 0 0 5.5875 0 12.5C0 19.4125 5.5875 25 12.5 25C19.4125 25 25 19.4125 25 12.5C25 5.5875 19.4125 0 12.5 0ZM15.7375 7.5L12.5 10.7375L9.2625 7.5L7.5 9.2625L10.7375 12.5L7.5 15.7375L9.2625 17.5L12.5 14.2625L15.7375 17.5L17.5 15.7375L14.2625 12.5L17.5 9.2625L15.7375 7.5Z" fill="#EC272E"/>
</g>
<defs>
<clipPath id="clip0_567_1570">
<rect width="25" height="25" fill="white"/>
</clipPath>
</defs>
</svg>
