<svg id="Layer_1" data-name="Layer 1" xmlns="http://www.w3.org/2000/svg" xmlns:xlink="http://www.w3.org/1999/xlink" viewBox="0 0 575 241"><defs><style>.cls-1{fill:url(#linear-gradient);}.cls-2{fill:#fff;}.cls-3{fill:#0092ef;}</style><linearGradient id="linear-gradient" x1="-94.2" y1="-94.4" x2="60.28" y2="60.08" gradientTransform="matrix(0, -1, -1, 0, 103.53, 103.53)" gradientUnits="userSpaceOnUse"><stop offset="0" stop-color="#6c00c9"/><stop offset="1" stop-color="#0092ef"/></linearGradient></defs><g id="Logo_W" data-name="Logo W"><path class="cls-1" d="M59.76,27,27.15,59.57A4.45,4.45,0,0,0,26,63.84l12.22,45.55.13,0-.1.09,7.77,29,2.42,9a10.16,10.16,0,0,0,13.47,6.84l59.65-23.1,21.7-8.41a10.15,10.15,0,0,1,13.47,6.84l2,7.43,7.61,27.76a1,1,0,0,1-1.26,1.26l-33.16-9.08-.51-.14-10-2.66a4.39,4.39,0,0,0-4.27,1.15l-29,29a4.43,4.43,0,0,0,2,7.42L131.65,203l.1-.1,0,.14,45.54,12.21a4.46,4.46,0,0,0,4.29-1.14l32.61-32.63a4.4,4.4,0,0,0,1.15-4.28l-12.19-45.56-.14,0,.1-.1-7.78-29-2.42-9a10.13,10.13,0,0,0-13.45-6.84l-63.29,24.5-18.09,7a10.14,10.14,0,0,1-13.46-6.82l-4.75-17.7L79,90.22l-2.19-8.15a.68.68,0,0,1,0-.15l-1.5-5.65A1,1,0,0,1,76.54,75l22.4,6.07,21,5.63a4.38,4.38,0,0,0,4.27-1.15l29-29a4.45,4.45,0,0,0-2-7.43L109.73,38l-.09.1,0-.12L64.06,25.79A4.5,4.5,0,0,0,59.76,27Z"/><path class="cls-2" d="M12.54,13.57l9.68,36.2a1,1,0,0,0,1.71.46L50.42,23.74A1,1,0,0,0,50,22l-36.18-9.7A1,1,0,0,0,12.54,13.57Z"/><path class="cls-2" d="M179.5,86.62l-63.29,24.5L46,138.51l2.42,9a10.16,10.16,0,0,0,13.47,6.84l59.65-23.1,73.82-28.8-2.42-9A10.13,10.13,0,0,0,179.5,86.62Z"/><path class="cls-2" d="M228.85,227.43l-9.69-36.2a1,1,0,0,0-1.71-.46L191,217.26a1,1,0,0,0,.46,1.71l36.18,9.7A1,1,0,0,0,228.85,227.43Z"/><path class="cls-2" d="M306.09,113.22q-11.19,0-17.14-6T283,90.68q0-11.07,5.77-17.22T306,67.3a40.48,40.48,0,0,1,7.22.59,36,36,0,0,1,6.05,1.63v8.16a32.59,32.59,0,0,0-12.58-2.42q-7.62,0-10.93,3.8t-3.32,11.62q0,14.66,14.39,14.66a35.61,35.61,0,0,0,6.43-.59,31.52,31.52,0,0,0,6.08-1.76v8.22a45.78,45.78,0,0,1-6.05,1.46A43.77,43.77,0,0,1,306.09,113.22Z"/><path class="cls-2" d="M329.33,112.53V79.75H338l.42,3.39a27.23,27.23,0,0,1,5.49-2.52,32.17,32.17,0,0,1,6.47-1.56v7c-1.25.19-2.61.46-4.08.83s-2.88.79-4.22,1.25a21.38,21.38,0,0,0-3.39,1.45v22.89Z"/><path class="cls-2" d="M374.28,113.22q-8.5,0-13.49-4.25t-5-12.9q0-7.81,4.19-12.41c2.78-3.07,6.95-4.6,12.48-4.6q7.61,0,11.65,4a14,14,0,0,1,4,10.41v6H364.46a7.05,7.05,0,0,0,3.63,5.39,18.3,18.3,0,0,0,8.12,1.46,31,31,0,0,0,5.36-.49,25,25,0,0,0,4.67-1.24v6.63a21.07,21.07,0,0,1-5.33,1.56A39,39,0,0,1,374.28,113.22Zm-9.82-19.57H380v-1.8a6,6,0,0,0-1.65-4.46q-1.67-1.62-5.61-1.62c-3.08,0-5.24.62-6.46,1.86S364.46,90.88,364.46,93.65Z"/><path class="cls-2" d="M408.44,113.22a14.54,14.54,0,0,1-5.78-1.14,10.13,10.13,0,0,1-4.29-3.39,9.41,9.41,0,0,1-1.62-5.64,9.65,9.65,0,0,1,3.42-7.74q3.42-2.91,10.13-2.9H420v-.9c0-2-.56-3.46-1.69-4.29S414.89,86,411.48,86a34,34,0,0,0-10.79,1.73V81.13a30.19,30.19,0,0,1,5.57-1.48,40.8,40.8,0,0,1,7.15-.59q7.41,0,11.45,3t4,9.64v20.82h-8.09l-.48-3a13.51,13.51,0,0,1-4.77,2.7A22.21,22.21,0,0,1,408.44,113.22Zm2.55-6.16a13,13,0,0,0,5.4-1A9.77,9.77,0,0,0,420,103.4V98.21h-9.47q-5.46,0-5.46,4.5T411,107.06Z"/><path class="cls-2" d="M452.9,113.22q-5.67,0-8.4-3a11.48,11.48,0,0,1-2.74-8.09V86.94h-4.63V79.75h4.63v-7l9.34-2.77v9.82h8.3l-.56,7.19H451.1v14.59c0,1.8.42,3,1.24,3.7a6.15,6.15,0,0,0,3.88,1,12.46,12.46,0,0,0,4-.7V112a16.47,16.47,0,0,1-3.32.93A23.42,23.42,0,0,1,452.9,113.22Z"/><path class="cls-2" d="M471.5,112.53V86.67h-4.91l.83-6.92h13.41v32.78Zm-.76-38.79V66.4H480.9v7.34Z"/><path class="cls-2" d="M502.41,112.53,489.48,79.75h9.75l8.16,23.37,8.23-23.37h9.68l-12.86,32.78Z"/><path class="cls-2" d="M548.6,113.22q-8.51,0-13.48-4.25t-5-12.9q0-7.81,4.18-12.41t12.48-4.6q7.61,0,11.65,4a14,14,0,0,1,4,10.41v6H538.78a7.1,7.1,0,0,0,3.63,5.39,18.32,18.32,0,0,0,8.13,1.46,31,31,0,0,0,5.36-.49,24.91,24.91,0,0,0,4.66-1.24v6.63a21,21,0,0,1-5.32,1.56A39.15,39.15,0,0,1,548.6,113.22Zm-9.82-19.57h15.56v-1.8a6,6,0,0,0-1.66-4.46c-1.11-1.08-3-1.62-5.6-1.62q-4.64,0-6.47,1.86C539.39,88.88,538.78,90.88,538.78,93.65Z"/><path class="cls-3" d="M326.78,174.6a28.85,28.85,0,0,1-11.07-1.77v-5.28A34,34,0,0,0,320.8,169a27.16,27.16,0,0,0,5.42.55,15.67,15.67,0,0,0,6.36-1q2.12-1,2.12-4a4.52,4.52,0,0,0-.88-2.92,6.91,6.91,0,0,0-2.92-1.9,47.87,47.87,0,0,0-5.61-1.68c-3.82-1-6.5-2.24-8-3.77a8.45,8.45,0,0,1-2.31-6.3,8.75,8.75,0,0,1,3.41-7.32q3.42-2.64,10.19-2.64a35.58,35.58,0,0,1,5.8.44,24.62,24.62,0,0,1,4.27,1v5.28a25.84,25.84,0,0,0-9.25-1.59,14.61,14.61,0,0,0-6.16,1A3.83,3.83,0,0,0,321,148a4.07,4.07,0,0,0,.77,2.59,5.89,5.89,0,0,0,2.67,1.7,54.7,54.7,0,0,0,5.25,1.6,23.74,23.74,0,0,1,6.75,2.61,8.75,8.75,0,0,1,3.35,3.53,10.4,10.4,0,0,1,1,4.54,8.77,8.77,0,0,1-3.47,7.35Q333.83,174.6,326.78,174.6Z"/><path class="cls-3" d="M359.8,174.6q-6.82,0-10.57-3.36t-3.74-10.3q0-6.27,3.19-9.9t9.69-3.64c4,0,6.95,1,8.94,3.11a11.09,11.09,0,0,1,3,8v4.85H351.21q.45,3.8,2.76,5.23t7,1.43a22.33,22.33,0,0,0,4.08-.39,19.68,19.68,0,0,0,3.63-1v4.4a17.11,17.11,0,0,1-4.05,1.16A28.86,28.86,0,0,1,359.8,174.6Zm-8.59-15.14H365v-1.82a5.71,5.71,0,0,0-1.49-4.21q-1.49-1.52-5-1.51-4.19,0-5.76,1.81C351.74,155,351.21,156.85,351.21,159.46Z"/><path class="cls-3" d="M376.15,174.05V148h5.5l.33,3a24.71,24.71,0,0,1,4.46-2.2,25,25,0,0,1,5.12-1.38V152a33,33,0,0,0-3.33.8c-1.19.35-2.32.73-3.38,1.16a18.06,18.06,0,0,0-2.7,1.29v18.83Z"/><path class="cls-3" d="M403.18,174.05,392.88,148h6.22l7.32,20.26L413.74,148h6.17l-10.24,26.1Z"/><path class="cls-3" d="M426.57,174.05V152.52h-4l.55-4.57h9.41v26.1Zm-.5-31.55v-4.95h6.55v4.95Z"/><path class="cls-3" d="M452.39,174.6q-6.88,0-10.41-3.5T438.46,161q0-6.88,3.88-10.24c2.59-2.24,6-3.36,10.38-3.36a22.43,22.43,0,0,1,4.54.39,15.5,15.5,0,0,1,3.55,1.21v4.46a15.31,15.31,0,0,0-6.94-1.43q-4.51,0-6.93,2t-2.43,7q0,4.68,2.15,6.85t7.1,2.18a16.62,16.62,0,0,0,7.1-1.49v4.57a21.05,21.05,0,0,1-3.88,1.1A24.79,24.79,0,0,1,452.39,174.6Z"/><path class="cls-3" d="M478.86,174.6q-6.83,0-10.57-3.36t-3.74-10.3q0-6.27,3.19-9.9t9.69-3.64q5.94,0,8.95,3.11a11.12,11.12,0,0,1,3,8v4.85H470.27q.45,3.8,2.76,5.23t7,1.43a22.33,22.33,0,0,0,4.08-.39,19.68,19.68,0,0,0,3.63-1v4.4a17.11,17.11,0,0,1-4,1.16A28.86,28.86,0,0,1,478.86,174.6Zm-8.59-15.14h13.82v-1.82a5.71,5.71,0,0,0-1.49-4.21q-1.49-1.52-5-1.51-4.19,0-5.76,1.81C470.8,155,470.27,156.85,470.27,159.46Z"/><path class="cls-3" d="M503.63,174.6a32.81,32.81,0,0,1-5.15-.39,24.09,24.09,0,0,1-4-.94v-5.06a21.81,21.81,0,0,0,4.13,1.1,25.14,25.14,0,0,0,4.29.39,12.64,12.64,0,0,0,4.4-.55,2.11,2.11,0,0,0,1.33-2.15,2.25,2.25,0,0,0-.8-1.82,7.84,7.84,0,0,0-2.37-1.21q-1.57-.54-4-1.32a25.63,25.63,0,0,1-4-1.68,6.86,6.86,0,0,1-2.64-2.34,6.67,6.67,0,0,1-.94-3.74,6.53,6.53,0,0,1,2.59-5.53c1.73-1.3,4.5-2,8.31-2a26.89,26.89,0,0,1,4.3.33,21,21,0,0,1,3.46.83v5a17.17,17.17,0,0,0-3.38-.94,19.64,19.64,0,0,0-3.44-.33,14.2,14.2,0,0,0-4.32.5,1.93,1.93,0,0,0-1.46,2A2.2,2.2,0,0,0,501.4,157c1,.43,2.63,1,4.87,1.74a23.51,23.51,0,0,1,4.9,2,6.74,6.74,0,0,1,2.62,2.5,7.86,7.86,0,0,1,.8,3.77,6.5,6.5,0,0,1-2.81,5.76C509.91,174,507.19,174.6,503.63,174.6Z"/><path class="cls-2" d="M306.5,174.6,283,164v-5.58l23.5-10.59v6.32l-16.32,7,16.32,7.08Z"/><path class="cls-2" d="M520.78,174.6l10.13-28.69h6L526.75,174.6Z"/><path class="cls-2" d="M542.22,173v-5.46l14.08-6.11-14.08-6.06V149.9L562.5,159v4.81Z"/></g></svg>