<svg width="30" height="26" viewBox="0 0 30 26" fill="none" xmlns="http://www.w3.org/2000/svg">
<path d="M5.88889 6.12889L7.02667 5L21.8889 19.8622L20.76 21L18.0222 18.2622C17 18.6 15.9156 18.7778 14.7778 18.7778C10.3333 18.7778 6.53778 16.0133 5 12.1111C5.61333 10.5467 6.59111 9.16889 7.83556 8.07556L5.88889 6.12889ZM14.7778 9.44444C15.485 9.44444 16.1633 9.7254 16.6634 10.2255C17.1635 10.7256 17.4444 11.4039 17.4444 12.1111C17.4449 12.4138 17.3938 12.7144 17.2933 13L13.8889 9.59556C14.1745 9.4951 14.4751 9.444 14.7778 9.44444ZM14.7778 5.44444C19.2222 5.44444 23.0178 8.20889 24.5556 12.1111C23.8301 13.954 22.5973 15.5535 21 16.7244L19.7378 15.4533C20.967 14.603 21.9584 13.4525 22.6178 12.1111C21.8992 10.6444 20.7835 9.40868 19.3976 8.54445C18.0117 7.68021 16.4111 7.22211 14.7778 7.22222C13.8089 7.22222 12.8578 7.38222 11.9689 7.66667L10.6 6.30667C11.88 5.75556 13.2933 5.44444 14.7778 5.44444ZM6.93778 12.1111C7.65639 13.5778 8.77206 14.8135 10.158 15.6778C11.5439 16.542 13.1445 17.0001 14.7778 17C15.3911 17 15.9956 16.9378 16.5556 16.8133L14.5289 14.7778C13.9104 14.7115 13.3332 14.4354 12.8933 13.9956C12.4534 13.5557 12.1774 12.9785 12.1111 12.36L9.08889 9.32889C8.20889 10.0844 7.47111 11.0267 6.93778 12.1111Z" fill="#232425"/>
</svg>
