<svg width="31" height="24" viewBox="0 0 31 24" fill="none" xmlns="http://www.w3.org/2000/svg">
<path d="M15.2667 9.2C16.0093 9.2 16.7215 9.495 17.2466 10.0201C17.7717 10.5452 18.0667 11.2574 18.0667 12C18.0667 12.7426 17.7717 13.4548 17.2466 13.9799C16.7215 14.505 16.0093 14.8 15.2667 14.8C14.5241 14.8 13.8119 14.505 13.2868 13.9799C12.7617 13.4548 12.4667 12.7426 12.4667 12C12.4667 11.2574 12.7617 10.5452 13.2868 10.0201C13.8119 9.495 14.5241 9.2 15.2667 9.2ZM15.2667 5C19.9333 5 23.9187 7.90267 25.5333 12C23.9187 16.0973 19.9333 19 15.2667 19C10.6 19 6.61467 16.0973 5 12C6.61467 7.90267 10.6 5 15.2667 5ZM7.03467 12C7.78904 13.5403 8.96042 14.838 10.4156 15.7457C11.8709 16.6534 13.5516 17.1346 15.2667 17.1346C16.9818 17.1346 18.6625 16.6534 20.1177 15.7457C21.5729 14.838 22.7443 13.5403 23.4987 12C22.7443 10.4597 21.5729 9.16197 20.1177 8.2543C18.6625 7.34662 16.9818 6.86544 15.2667 6.86544C13.5516 6.86544 11.8709 7.34662 10.4156 8.2543C8.96042 9.16197 7.78904 10.4597 7.03467 12Z" fill="#232425"/>
</svg>
