<svg width="20" height="16" viewBox="0 0 20 16" fill="none" xmlns="http://www.w3.org/2000/svg">
<path d="M0.888889 1.12889L2.02667 0L16.8889 14.8622L15.76 16L13.0222 13.2622C12 13.6 10.9156 13.7778 9.77778 13.7778C5.33333 13.7778 1.53778 11.0133 0 7.11111C0.613333 5.54667 1.59111 4.16889 2.83556 3.07556L0.888889 1.12889ZM9.77778 4.44444C10.485 4.44444 11.1633 4.7254 11.6634 5.22549C12.1635 5.72559 12.4444 6.40387 12.4444 7.11111C12.4449 7.41384 12.3938 7.71443 12.2933 8L8.88889 4.59556C9.17446 4.4951 9.47505 4.444 9.77778 4.44444ZM9.77778 0.444444C14.2222 0.444444 18.0178 3.20889 19.5556 7.11111C18.8301 8.95396 17.5973 10.5535 16 11.7244L14.7378 10.4533C15.967 9.603 16.9584 8.45249 17.6178 7.11111C16.8992 5.64439 15.7835 4.40868 14.3976 3.54445C13.0117 2.68021 11.4111 2.22211 9.77778 2.22222C8.80889 2.22222 7.85778 2.38222 6.96889 2.66667L5.6 1.30667C6.88 0.755555 8.29333 0.444444 9.77778 0.444444ZM1.93778 7.11111C2.65639 8.57783 3.77206 9.81354 5.15798 10.6778C6.5439 11.542 8.14448 12.0001 9.77778 12C10.3911 12 10.9956 11.9378 11.5556 11.8133L9.52889 9.77778C8.91037 9.71148 8.33318 9.43544 7.89331 8.99558C7.45344 8.55571 7.17741 7.97852 7.11111 7.36L4.08889 4.32889C3.20889 5.08444 2.47111 6.02667 1.93778 7.11111Z" fill="#232425"/>
</svg>
