<svg width="33" height="32" viewBox="0 0 33 32" fill="none" xmlns="http://www.w3.org/2000/svg">
<g clip-path="url(#clip0_567_1557)">
<path d="M32.9052 16.0974C32.9052 7.20487 25.7003 0 16.8078 0C7.91532 0 0.710449 7.20487 0.710449 16.0974C0.710449 24.1318 6.59702 30.7914 14.2926 32V20.7507H10.2033V16.0974H14.2926V12.5508C14.2926 8.51667 16.6942 6.28836 20.3726 6.28836C22.1342 6.28836 23.9763 6.60252 23.9763 6.60252V10.5619H21.946C19.9468 10.5619 19.323 11.803 19.323 13.0759V16.0974H23.7874L23.0734 20.7507H19.323V32C27.0186 30.7914 32.9052 24.1318 32.9052 16.0974Z" fill="#1778F2"/>
</g>
<defs>
<clipPath id="clip0_567_1557">
<rect width="32.1947" height="32" fill="white" transform="translate(0.710449)"/>
</clipPath>
</defs>
</svg>
