<svg width="35" height="35" viewBox="0 0 35 35" fill="none" xmlns="http://www.w3.org/2000/svg">
<g clip-path="url(#clip0_740_1562)">
<path d="M34.3406 15.9408L19.0589 0.660056C18.1794 -0.220019 16.752 -0.220019 15.8714 0.660056L12.6981 3.83336L16.7236 7.85884C17.6591 7.54274 18.7318 7.7548 19.4774 8.50047C20.2267 9.25094 20.4372 10.3328 20.1135 11.2713L23.9929 15.1509C24.9315 14.8275 26.0145 15.0367 26.7641 15.7876C27.8118 16.8349 27.8118 18.5323 26.7641 19.5802C25.7162 20.6283 24.0188 20.6283 22.9703 19.5802C22.1822 18.7913 21.9875 17.634 22.3865 16.6631L18.7685 13.0452L18.7681 22.5661C19.0304 22.6958 19.2699 22.8671 19.4774 23.0733C20.5251 24.1206 20.5251 25.8181 19.4774 26.8669C18.4295 27.9145 16.7313 27.9145 15.6848 26.8669C14.6371 25.8181 14.6371 24.1207 15.6848 23.0735C15.9359 22.8223 16.2343 22.6233 16.5627 22.4882V12.8786C16.2338 12.7443 15.9352 12.5452 15.6848 12.2933C14.891 11.5006 14.7001 10.3358 15.1069 9.36114L11.1387 5.39253L0.660364 15.8702C-0.220121 16.7511 -0.220121 18.1786 0.660364 19.0588L15.9422 34.3398C16.822 35.2201 18.2491 35.2201 19.13 34.3398L34.3404 19.1297C35.2206 18.2493 35.2208 16.8209 34.3406 15.9408Z" fill="#DE4C36"/>
</g>
<defs>
<clipPath id="clip0_740_1562">
<rect width="35.0006" height="35" fill="white"/>
</clipPath>
</defs>
</svg>
