<svg width="33" height="32" viewBox="0 0 33 32" fill="none" xmlns="http://www.w3.org/2000/svg">
<g clip-path="url(#clip0_740_1565)">
<path d="M16.3628 0C7.32705 0 0 7.34466 0 16.405C0 23.6533 4.68844 29.8026 11.1899 31.9718C12.0077 32.1236 12.308 31.6159 12.308 31.1826C12.308 30.7915 12.2927 29.4991 12.2858 28.1283C7.73348 29.1207 6.77292 26.1927 6.77292 26.1927C6.0286 24.2965 4.95614 23.7924 4.95614 23.7924C3.47161 22.7742 5.06804 22.795 5.06804 22.795C6.71119 22.9108 7.5764 24.4856 7.5764 24.4856C9.03578 26.9936 11.4043 26.2685 12.338 25.8495C12.4848 24.789 12.9089 24.0654 13.3768 23.6558C9.7425 23.2408 5.92183 21.8342 5.92183 15.5483C5.92183 13.7573 6.56105 12.2938 7.60784 11.1449C7.43793 10.7317 6.87789 9.0632 7.76633 6.80351C7.76633 6.80351 9.14037 6.36259 12.2673 8.48512C13.5724 8.12152 14.9722 7.93934 16.3628 7.93316C17.7534 7.93934 19.1543 8.12152 20.462 8.48512C23.5852 6.36259 24.9573 6.80351 24.9573 6.80351C25.8479 9.0632 25.2876 10.7317 25.1177 11.1449C26.1668 12.2938 26.8017 13.7572 26.8017 15.5483C26.8017 21.8491 22.9738 23.2366 19.3302 23.6426C19.9171 24.1518 20.44 25.1502 20.44 26.6806C20.44 28.8756 20.421 30.6422 20.421 31.1826C20.421 31.6192 20.7156 32.1307 21.5451 31.9696C28.043 29.798 32.7255 23.6509 32.7255 16.405C32.7255 7.34466 25.3995 0 16.3628 0Z" fill="#232425"/>
<path d="M6.1282 23.3694C6.09227 23.4508 5.96419 23.4753 5.8478 23.4194C5.72909 23.3659 5.66236 23.2547 5.70086 23.1729C5.73615 23.089 5.86422 23.0656 5.98267 23.122C6.10163 23.1754 6.16939 23.2875 6.1282 23.3694ZM6.93309 24.0894C6.85506 24.1619 6.70248 24.1282 6.59892 24.0136C6.49189 23.8992 6.47187 23.7464 6.55105 23.6726C6.63151 23.6002 6.77948 23.634 6.88676 23.7485C6.99379 23.8642 7.01458 24.0162 6.93296 24.0895M7.4853 25.0106C7.38494 25.0804 7.22094 25.015 7.11968 24.8691C7.01946 24.7233 7.01946 24.5483 7.12186 24.4782C7.2235 24.4081 7.38494 24.4711 7.48761 24.6158C7.58771 24.7642 7.58771 24.9392 7.48517 25.0107M8.41903 26.0776C8.32933 26.1766 8.13837 26.1501 7.99849 26.0148C7.85553 25.8825 7.81562 25.6948 7.90558 25.5956C7.99631 25.4963 8.18842 25.5242 8.32933 25.6584C8.47139 25.7904 8.51464 25.9795 8.41903 26.0776ZM9.62586 26.4378C9.58646 26.5662 9.40243 26.6246 9.21712 26.5701C9.03207 26.5139 8.91093 26.3633 8.94827 26.2335C8.98677 26.1042 9.17157 26.0434 9.35829 26.1018C9.54308 26.1577 9.66436 26.3071 9.62586 26.4378ZM10.9995 26.5905C11.0041 26.7259 10.8469 26.8381 10.6524 26.8405C10.4567 26.8448 10.2984 26.7353 10.2964 26.6023C10.2964 26.4656 10.45 26.3545 10.6456 26.3512C10.8401 26.3474 10.9995 26.4561 10.9995 26.5905ZM12.3488 26.5387C12.3721 26.6707 12.2369 26.8063 12.0437 26.8423C11.8538 26.8771 11.678 26.7956 11.6537 26.6648C11.6301 26.5294 11.768 26.394 11.9575 26.3588C12.151 26.3251 12.3241 26.4045 12.3488 26.5387Z" fill="#232425"/>
</g>
<defs>
<clipPath id="clip0_740_1565">
<rect width="32.7255" height="32" fill="white"/>
</clipPath>
</defs>
</svg>
