<svg width="33" height="32" viewBox="0 0 33 32" fill="none" xmlns="http://www.w3.org/2000/svg">
<g clip-path="url(#clip0_567_1555)">
<path d="M10.9409 25.7664C10.9409 25.8987 10.7892 26.0046 10.5979 26.0046C10.3803 26.0244 10.2286 25.9185 10.2286 25.7664C10.2286 25.634 10.3803 25.5281 10.5716 25.5281C10.7694 25.5083 10.9409 25.6142 10.9409 25.7664ZM8.88987 25.4686C8.8437 25.6009 8.9756 25.7531 9.17345 25.7928C9.34491 25.859 9.54276 25.7928 9.58233 25.6605C9.6219 25.5281 9.4966 25.376 9.29875 25.3164C9.12728 25.2701 8.93603 25.3363 8.88987 25.4686ZM11.8048 25.3561C11.6135 25.4024 11.4816 25.5281 11.5014 25.6803C11.5212 25.8127 11.6927 25.8987 11.8905 25.8524C12.0818 25.8061 12.2137 25.6803 12.1939 25.548C12.1741 25.4223 11.996 25.3363 11.8048 25.3561ZM16.1442 0C6.99714 0 0 6.96763 0 16.1453C0 23.4835 4.60321 29.763 11.1783 31.973C12.0224 32.1252 12.3192 31.6025 12.3192 31.1724C12.3192 30.7621 12.2994 28.4991 12.2994 27.1096C12.2994 27.1096 7.68301 28.1021 6.71357 25.1377C6.71357 25.1377 5.96175 23.2122 4.88019 22.7159C4.88019 22.7159 3.36997 21.6771 4.98571 21.6969C4.98571 21.6969 6.62783 21.8293 7.53133 23.4041C8.9756 25.9582 11.3959 25.2238 12.339 24.787C12.4907 23.7283 12.9193 22.9939 13.3942 22.5571C9.70763 22.1469 5.98813 21.6109 5.98813 15.2454C5.98813 13.4258 6.48934 12.5126 7.54452 11.348C7.37305 10.9179 6.81249 9.14461 7.71598 6.85515C9.09431 6.42505 12.2664 8.64172 12.2664 8.64172C13.5854 8.27117 15.0033 8.07928 16.408 8.07928C17.8127 8.07928 19.2306 8.27117 20.5496 8.64172C20.5496 8.64172 23.7217 6.41843 25.1 6.85515C26.0035 9.15122 25.443 10.9179 25.2715 11.348C26.3267 12.5192 26.973 13.4324 26.973 15.2454C26.973 21.6308 23.0886 22.1403 19.4021 22.5571C20.0088 23.0799 20.5232 24.0724 20.5232 25.6274C20.5232 27.8573 20.5034 30.6166 20.5034 31.1592C20.5034 31.5893 20.8068 32.112 21.6443 31.9598C28.2392 29.763 32.7105 23.4835 32.7105 16.1453C32.7105 6.96763 25.2913 0 16.1442 0ZM6.4102 22.8218C6.32447 22.888 6.34425 23.0402 6.45637 23.1659C6.56188 23.2718 6.71356 23.3181 6.7993 23.2321C6.88503 23.1659 6.86525 23.0137 6.75313 22.888C6.64762 22.7821 6.49593 22.7358 6.4102 22.8218ZM5.69796 22.2858C5.65179 22.3719 5.71774 22.4777 5.84964 22.5439C5.95516 22.6101 6.08705 22.5902 6.13322 22.4976C6.17938 22.4116 6.11343 22.3057 5.98154 22.2395C5.84964 22.1998 5.74412 22.2197 5.69796 22.2858ZM7.83469 24.6415C7.72917 24.7275 7.76874 24.926 7.92042 25.0517C8.07211 25.2039 8.26336 25.2238 8.34909 25.1179C8.43482 25.0319 8.39525 24.8334 8.26336 24.7076C8.11827 24.5555 7.92042 24.5356 7.83469 24.6415ZM7.08288 23.6688C6.97736 23.735 6.97736 23.907 7.08288 24.0592C7.1884 24.2114 7.36646 24.2775 7.45219 24.2114C7.55771 24.1254 7.55771 23.9533 7.45219 23.8011C7.35986 23.6489 7.1884 23.5828 7.08288 23.6688Z" fill="black"/>
</g>
<defs>
<clipPath id="clip0_567_1555">
<rect width="32.7105" height="32" fill="white"/>
</clipPath>
</defs>
</svg>
