<svg width="159" height="135" viewBox="0 0 159 135" fill="none" xmlns="http://www.w3.org/2000/svg">
<path d="M15.0944 31.7515H3.8577C3.4848 31.7515 3.12716 31.6033 2.86348 31.3396C2.5998 31.076 2.45166 30.7183 2.45166 30.3454V14.7939C2.45166 14.421 2.5998 14.0634 2.86348 13.7997C3.12716 13.536 3.4848 13.3879 3.8577 13.3879H10.983L16.4987 19.0737V30.3471C16.4983 30.7194 16.3502 31.0764 16.0869 31.3396C15.8236 31.6029 15.4667 31.751 15.0944 31.7515Z" fill="#0092EF"/>
<path d="M2.45166 26.1796H16.5004V29.9307C16.5006 30.1701 16.4536 30.4071 16.3621 30.6283C16.2705 30.8495 16.1362 31.0504 15.9669 31.2196C15.7975 31.3888 15.5964 31.5229 15.3752 31.6143C15.1539 31.7057 14.9168 31.7525 14.6774 31.752H4.27134C4.03224 31.752 3.79548 31.7049 3.5746 31.6133C3.35371 31.5218 3.15304 31.3876 2.98404 31.2185C2.81505 31.0493 2.68105 30.8485 2.5897 30.6275C2.49835 30.4066 2.45144 30.1698 2.45166 29.9307V26.1796Z" fill="#0F2832"/>
<path d="M7.43042 29.7735L7.78401 29.3499C7.83769 29.4383 7.91236 29.5121 8.00138 29.5648C8.09041 29.6174 8.19105 29.6473 8.29439 29.6518C8.54958 29.6518 8.68301 29.4983 8.68301 29.1964V27.8888H7.7173V27.3768H9.31515V29.1614C9.31515 29.8402 8.98157 30.1738 8.32608 30.1738C8.15606 30.1805 7.98678 30.1479 7.83143 30.0784C7.67608 30.009 7.53885 29.9047 7.43042 29.7735Z" fill="#FAFAFA"/>
<path d="M9.6958 29.9307L9.90095 29.4904C10.1227 29.6234 10.3762 29.6943 10.6348 29.6956C10.9167 29.6956 11.0235 29.6205 11.0235 29.5021C11.0235 29.1568 9.74751 29.5104 9.74751 28.6681C9.74751 28.2678 10.1078 27.9843 10.7249 27.9843C11.0072 27.979 11.2866 28.0426 11.5388 28.1694L11.342 28.6031C11.1565 28.4981 10.9464 28.444 10.7332 28.4463C10.458 28.4463 10.3413 28.533 10.3413 28.6431C10.3413 29.0034 11.6172 28.6548 11.6172 29.4871C11.6172 29.879 11.252 30.1542 10.6165 30.1542C10.2952 30.1627 9.97746 30.0855 9.6958 29.9307Z" fill="#FAFAFA"/>
<path d="M5.42773 23.2536L5.86973 22.7382C5.98629 22.9281 6.14893 23.0854 6.34254 23.1957C6.53615 23.3059 6.75446 23.3654 6.97722 23.3687C7.57767 23.3687 7.88956 23.0034 7.88956 22.2896V19.3057H5.96814V18.6385H8.63679V22.2462C8.63679 23.4321 8.05969 24.0159 6.96888 24.0159C6.66953 24.0228 6.37295 23.957 6.10455 23.8243C5.83615 23.6916 5.60392 23.4957 5.42773 23.2536Z" fill="#FAFAFA"/>
<path d="M9.57495 23.5353L9.87851 22.9666C10.299 23.2397 10.7898 23.3846 11.2912 23.3836C11.9584 23.3836 12.2486 23.1784 12.2486 22.8365C12.2486 21.9341 9.70338 22.7164 9.70338 21.1135C9.70338 20.3913 10.3489 19.906 11.383 19.906C11.895 19.8976 12.4003 20.0229 12.849 20.2696L12.5371 20.8467C12.1875 20.6286 11.7816 20.5178 11.3696 20.5281C10.7325 20.5281 10.4206 20.7633 10.4206 21.0835C10.4206 22.0326 12.9725 21.2503 12.9725 22.8215C12.9725 23.5503 12.3053 24.014 11.2328 24.014C10.5707 24.0057 9.90853 23.8005 9.57495 23.5353Z" fill="#FAFAFA"/>
<path d="M10.9834 13.3871V17.7653C10.9834 18.1121 11.1212 18.4447 11.3664 18.6899C11.6116 18.9352 11.9442 19.0729 12.291 19.0729H16.4991L10.9834 13.3871Z" fill="#05B4FF"/>
<g opacity="0.2">
<path d="M11.0417 18.1482C11.0417 18.1482 10.985 19.209 12.1942 19.5593C12.2398 19.5718 12.286 19.5819 12.3326 19.5893C12.883 19.6877 16.5024 20.3315 16.5024 20.2481V19.0806H12.2909C12.2909 19.0806 11.2402 19.0372 11.0417 18.1482Z" fill="black"/>
</g>
<path d="M34.5445 22.6868H20.6626C20.2021 22.6868 19.7604 22.5039 19.4348 22.1783C19.1092 21.8527 18.9263 21.411 18.9263 20.9505V1.73629C18.9263 1.2758 19.1092 0.834164 19.4348 0.508547C19.7604 0.18293 20.2021 0 20.6626 0H29.4674L36.2825 7.02354V20.9505C36.282 21.4112 36.0987 21.8528 35.7729 22.1784C35.447 22.504 35.0052 22.6868 34.5445 22.6868Z" fill="#0092EF"/>
<path d="M19.3199 15.8036H35.8872C35.9389 15.8036 35.99 15.8138 36.0378 15.8336C36.0856 15.8533 36.129 15.8823 36.1655 15.9189C36.2021 15.9554 36.2311 15.9988 36.2508 16.0466C36.2706 16.0944 36.2808 16.1455 36.2808 16.1972V20.6322C36.2808 20.9029 36.2275 21.171 36.1239 21.4211C36.0203 21.6712 35.8684 21.8985 35.677 22.0899C35.4856 22.2813 35.2583 22.4332 35.0082 22.5368C34.7581 22.6404 34.49 22.6937 34.2193 22.6937H20.9878C20.441 22.6937 19.9167 22.4765 19.5301 22.0899C19.1435 21.7033 18.9263 21.1789 18.9263 20.6322V16.1972C18.9263 16.0928 18.9677 15.9927 19.0416 15.9189C19.1154 15.8451 19.2155 15.8036 19.3199 15.8036Z" fill="#0F2832"/>
<path d="M29.4661 0V5.40734C29.4661 5.83554 29.6362 6.2462 29.9389 6.54899C30.2417 6.85177 30.6524 7.02187 31.0806 7.02187H36.2811L29.4661 0Z" fill="#05B4FF"/>
<g opacity="0.2">
<path d="M29.5364 5.88107C29.5364 5.88107 29.468 7.19371 30.9608 7.62403C31.0156 7.63998 31.0713 7.65279 31.1276 7.66239C31.8064 7.78415 36.2764 8.57974 36.2764 8.47633V7.02359H31.0809C31.0809 7.02359 29.7832 6.97855 29.5364 5.88107Z" fill="black"/>
</g>
<path d="M23.8948 18.7974C23.8948 17.9834 24.5186 17.4013 25.3592 17.4013C25.5684 17.3926 25.7769 17.4311 25.9692 17.514C26.1615 17.5968 26.3327 17.722 26.47 17.88L26.0697 18.2503C25.9874 18.1502 25.8837 18.0698 25.7662 18.0149C25.6487 17.9601 25.5205 17.9323 25.3909 17.9334C25.1617 17.9334 24.942 18.0244 24.78 18.1865C24.6179 18.3485 24.5269 18.5682 24.5269 18.7974C24.5269 19.0265 24.6179 19.2463 24.78 19.4083C24.942 19.5703 25.1617 19.6614 25.3909 19.6614C25.5209 19.6626 25.6494 19.6344 25.767 19.579C25.8845 19.5235 25.988 19.4422 26.0697 19.3411L26.47 19.7114C26.3333 19.8725 26.1615 20.0001 25.9678 20.0845C25.7741 20.1689 25.5636 20.2079 25.3525 20.1984C24.5186 20.1984 23.8948 19.6163 23.8948 18.7974Z" fill="#FAFAFA"/>
<path d="M26.6531 19.8867L26.8649 19.4164C27.127 19.597 27.4372 19.6952 27.7556 19.6982C28.1258 19.6982 28.2759 19.5748 28.2759 19.408C28.2759 18.9076 26.7081 19.2512 26.7081 18.2488C26.7081 17.7885 27.0767 17.4065 27.8456 17.4065C28.1736 17.4 28.4971 17.483 28.7813 17.6467L28.5895 18.1204C28.3622 17.9867 28.1043 17.9137 27.8406 17.9086C27.4703 17.9086 27.3286 18.047 27.3286 18.2171C27.3286 18.7175 28.8981 18.3722 28.8981 19.363C28.8981 19.8133 28.5228 20.1969 27.7522 20.1969C27.3629 20.2073 26.9795 20.0991 26.6531 19.8867Z" fill="#FAFAFA"/>
<path d="M29.1113 19.8867L29.3248 19.4163C29.5867 19.5975 29.897 19.6957 30.2155 19.6982C30.5858 19.6982 30.7359 19.5748 30.7359 19.408C30.7359 18.9076 29.1664 19.2512 29.1664 18.2488C29.1664 17.7885 29.5366 17.4065 30.3039 17.4065C30.6323 17.4003 30.9563 17.4833 31.2412 17.6467L31.0478 18.1204C30.8205 17.9865 30.5626 17.9136 30.2989 17.9086C29.9303 17.9086 29.7868 18.047 29.7868 18.2171C29.7868 18.7175 31.3563 18.3722 31.3563 19.363C31.3563 19.8133 30.9827 20.1969 30.2105 20.1969C29.8212 20.2068 29.438 20.0986 29.1113 19.8867Z" fill="#FAFAFA"/>
<path d="M24.7751 10.067C25.0603 10.1537 25.1904 10.3338 25.1904 10.7608V11.7616C25.1823 11.8233 25.1885 11.886 25.2083 11.945C25.2282 12.0039 25.2613 12.0576 25.305 12.1018C25.3488 12.1461 25.4021 12.1798 25.4608 12.2003C25.5196 12.2208 25.5823 12.2276 25.644 12.2202H25.7558V12.9775H25.3955C24.62 12.9775 24.228 12.5805 24.228 11.8666V10.7441C24.234 10.7063 24.2313 10.6675 24.22 10.6308C24.2088 10.5941 24.1893 10.5605 24.1631 10.5325C24.1368 10.5045 24.1045 10.4829 24.0687 10.4693C24.0328 10.4557 23.9943 10.4504 23.9561 10.4539H23.751V9.6967H23.9561C23.9944 9.69994 24.0329 9.69444 24.0688 9.68061C24.1046 9.66679 24.1369 9.64499 24.1631 9.61688C24.1892 9.58876 24.2087 9.55506 24.2199 9.51832C24.2312 9.48159 24.2339 9.44277 24.228 9.40481V8.28232C24.228 7.57012 24.625 7.17316 25.3955 7.17316H25.7558V7.93039H25.644C25.5823 7.923 25.5196 7.92983 25.4608 7.95035C25.4021 7.97087 25.3488 8.00453 25.305 8.04878C25.2613 8.09302 25.2282 8.14668 25.2083 8.20565C25.1885 8.26462 25.1823 8.32735 25.1904 8.38906V9.38146C25.1854 9.80011 25.0603 9.98024 24.7751 10.067Z" fill="#FAFAFA"/>
<path d="M31.4602 9.68846V10.4457H31.2567C31.2184 10.4422 31.1799 10.4475 31.144 10.4611C31.1081 10.4747 31.0757 10.4963 31.0494 10.5243C31.023 10.5522 31.0034 10.5858 30.9919 10.6225C30.9804 10.6591 30.9774 10.6979 30.9832 10.7359V11.8584C30.9832 12.5723 30.5862 12.9692 29.8156 12.9692H29.457V12.212H29.5688C29.6305 12.2194 29.6931 12.2126 29.7518 12.1921C29.8105 12.1716 29.8637 12.1379 29.9074 12.0936C29.951 12.0493 29.9839 11.9956 30.0036 11.9366C30.0232 11.8776 30.0291 11.8149 30.0208 11.7533V10.7526C30.0208 10.3256 30.1509 10.1455 30.4361 10.0587C30.1509 9.972 30.0208 9.79187 30.0208 9.36488V8.37248C30.0291 8.31087 30.0232 8.24816 30.0036 8.18917C29.9839 8.13018 29.951 8.07649 29.9074 8.0322C29.8637 7.98791 29.8105 7.95421 29.7518 7.93369C29.6931 7.91317 29.6305 7.90637 29.5688 7.91381H29.457V7.15659H29.8156C30.5912 7.15659 30.9832 7.55354 30.9832 8.26574V9.38823C30.9772 9.42634 30.9799 9.46532 30.9913 9.50219C31.0026 9.53906 31.0222 9.57286 31.0486 9.60101C31.075 9.62916 31.1074 9.65092 31.1435 9.66463C31.1796 9.67833 31.2183 9.68363 31.2567 9.68012L31.4602 9.68846Z" fill="#FAFAFA"/>
<path d="M158.451 134.942C158.451 134.973 122.978 135 79.2253 135C35.4729 135 0 134.973 0 134.942C0 134.91 35.4662 134.883 79.2253 134.883C122.984 134.883 158.451 134.908 158.451 134.942Z" fill="#0F2832"/>
<path d="M46.2808 27.832H155.361C156.18 27.832 156.965 28.1571 157.543 28.7358C158.122 29.3145 158.447 30.0993 158.447 30.9177V102.914C158.447 103.958 158.032 104.959 157.294 105.698C156.556 106.436 155.555 106.85 154.511 106.85H46.0973C45.3273 106.847 44.59 106.539 44.0467 105.993C43.5035 105.447 43.1985 104.708 43.1985 103.938V30.9177C43.1985 30.0999 43.5231 29.3155 44.1011 28.737C44.679 28.1584 45.463 27.8329 46.2808 27.832Z" fill="#0F2832"/>
<path d="M66.0378 39.1656H57.9084V40.9386H66.0378V39.1656Z" fill="#0F4B64"/>
<path d="M61.9731 47.1047H57.9084V48.8777H61.9731V47.1047Z" fill="#0092EF"/>
<path d="M66.6889 51.0979H60.9663V52.8709H66.6889V51.0979Z" fill="#0F4B64"/>
<path d="M70.9335 51.0979H67.5994V52.8709H70.9335V51.0979Z" fill="#0F4B64"/>
<path d="M100.834 51.0979H93.9753V52.8709H100.834V51.0979Z" fill="#0F4B64"/>
<path d="M120.879 54.9904H109.292V56.7634H120.879V54.9904Z" fill="#0F4B64"/>
<path d="M138.752 51.0979H133.188V52.8709H138.752V51.0979Z" fill="#0F4B64"/>
<path d="M151.646 51.0979H140.459V52.8709H151.646V51.0979Z" fill="#0F4B64"/>
<path d="M66.6889 54.9904H60.9663V56.7634H66.6889V54.9904Z" fill="#0F4B64"/>
<path d="M63.1737 58.8733H57.4512V60.6463H63.1737V58.8733Z" fill="#0092EF"/>
<path d="M63.1736 62.7562H60.5V64.5292H63.1736V62.7562Z" fill="#0F4B64"/>
<path d="M72.9883 70.9359H70.3147V72.7089H72.9883V70.9359Z" fill="#0F4B64"/>
<path d="M112.324 85.7137H107.1V87.4867H112.324V85.7137Z" fill="#0F4B64"/>
<path d="M141.512 85.7137H128.712V87.4867H141.512V85.7137Z" fill="#0F4B64"/>
<path d="M92.6518 81.834H87.428V83.607H92.6518V81.834Z" fill="#E1E1E1"/>
<path d="M73.7209 78.5049H68.4971V80.2779H73.7209V78.5049Z" fill="#0F4B64"/>
<path d="M106.015 85.7137H97.7771V87.4867H106.015V85.7137Z" fill="#0F4B64"/>
<path d="M64.8399 66.7111H60.5V68.484H64.8399V66.7111Z" fill="#0F4B64"/>
<path d="M68.5493 71.0009H60.5V72.7739H68.5493V71.0009Z" fill="#0F4B64"/>
<path d="M72.277 74.2866H60.5V76.0596H72.277V74.2866Z" fill="#0F4B64"/>
<path d="M93.6142 74.2866H81.8372V76.0596H93.6142V74.2866Z" fill="#0F4B64"/>
<path d="M84.9296 81.834H68.394V83.607H84.9296V81.834Z" fill="#0F4B64"/>
<path d="M96.3631 85.7137H68.394V87.4867H96.3631V85.7137Z" fill="#0F4B64"/>
<path d="M87.9012 89.5916H59.9321V91.3646H87.9012V89.5916Z" fill="#0F4B64"/>
<path d="M80.5845 74.2866H73.5193V76.0596H80.5845V74.2866Z" fill="#0F4B64"/>
<path d="M71.5194 62.7562H64.229V64.5292H71.5194V62.7562Z" fill="#0F4B64"/>
<path d="M73.1258 66.7111H65.8354V68.484H73.1258V66.7111Z" fill="#0F4B64"/>
<path d="M101.37 66.7111H82.0676V68.484H101.37V66.7111Z" fill="#0F4B64"/>
<path d="M124.191 66.7111H101.896V68.484H124.191V66.7111Z" fill="#0F4B64"/>
<path d="M80.3575 66.7111H74.323V68.484H80.3575V66.7111Z" fill="#0F4B64"/>
<path d="M82.0754 62.7562H72.5183V64.5292H82.0754V62.7562Z" fill="#0F4B64"/>
<path d="M88.4493 62.7562H83.1304V64.5292H88.4493V62.7562Z" fill="#E1E1E1"/>
<path d="M73.5655 54.9904H67.5994V56.7634H73.5655V54.9904Z" fill="#0F4B64"/>
<path d="M107.082 54.9904H77.6216V56.7634H107.082V54.9904Z" fill="#0F4B64"/>
<path d="M140.154 66.7111H126.224V68.484H140.154V66.7111Z" fill="#0F4B64"/>
<path d="M127.61 85.7137H113.679V87.4867H127.61V85.7137Z" fill="#0F4B64"/>
<path d="M131.022 51.0979H102V52.8709H131.022V51.0979Z" fill="#0F4B64"/>
<path d="M92.1724 51.0979H71.9775V52.8709H92.1724V51.0979Z" fill="#0F4B64"/>
<path d="M71.5052 42.9232H57.9084V44.6961H71.5052V42.9232Z" fill="#0F4B64"/>
<path d="M91.482 42.9232H72.8633V44.6961H91.482V42.9232Z" fill="#0F4B64"/>
<path d="M73.2925 39.1656H67.3064V40.9386H73.2925V39.1656Z" fill="#E1E1E1"/>
<path d="M51.7031 39.1656H49.9868V40.9386H51.7031V39.1656Z" fill="#0F4B64"/>
<path d="M51.7031 43.0448H49.9868V44.8178H51.7031V43.0448Z" fill="#0F4B64"/>
<path d="M51.7031 46.9232H49.9868V48.6962H51.7031V46.9232Z" fill="#0F4B64"/>
<path d="M51.7031 50.8024H49.9868V52.5754H51.7031V50.8024Z" fill="#0F4B64"/>
<path d="M51.7031 54.6808H49.9868V56.4537H51.7031V54.6808Z" fill="#0F4B64"/>
<path d="M51.7031 58.56H49.9868V60.3329H51.7031V58.56Z" fill="#0F4B64"/>
<path d="M51.7031 62.4398H49.9868V64.2127H51.7031V62.4398Z" fill="#0F4B64"/>
<path d="M51.7031 66.3175H49.9868V68.0905H51.7031V66.3175Z" fill="#0F4B64"/>
<path d="M51.7031 70.1967H49.9868V71.9697H51.7031V70.1967Z" fill="#0F4B64"/>
<path d="M72.3331 97.9707H69.6594V99.7437H72.3331V97.9707Z" fill="#E1E1E1"/>
<path d="M68.0341 97.9707H59.9849V99.7437H68.0341V97.9707Z" fill="#0092EF"/>
<path d="M51.7031 97.774H49.9868V99.547H51.7031V97.774Z" fill="#0F4B64"/>
<path d="M51.7031 74.0764H49.9868V75.8494H51.7031V74.0764Z" fill="#0F4B64"/>
<path d="M51.7031 77.9543H49.9868V79.7273H51.7031V77.9543Z" fill="#0F4B64"/>
<path d="M51.7031 81.834H49.9868V83.607H51.7031V81.834Z" fill="#0F4B64"/>
<path d="M51.7031 85.7137H49.9868V87.4867H51.7031V85.7137Z" fill="#0F4B64"/>
<path d="M51.7031 89.5916H49.9868V91.3646H51.7031V89.5916Z" fill="#0F4B64"/>
<path d="M68.0865 93.6745H59.9321V95.4475H68.0865V93.6745Z" fill="#0F4B64"/>
<path d="M88.1031 93.6745H69.6594V95.4475H88.1031V93.6745Z" fill="#0F4B64"/>
<path d="M51.7031 93.6745H49.9868V95.4475H51.7031V93.6745Z" fill="#0F4B64"/>
<path d="M99.7383 42.9122H93.7522V44.6852H99.7383V42.9122Z" fill="#E1E1E1"/>
<path d="M49.6265 34.1603C50.299 34.1603 50.8441 33.6151 50.8441 32.9427C50.8441 32.2703 50.299 31.7251 49.6265 31.7251C48.9541 31.7251 48.4089 32.2703 48.4089 32.9427C48.4089 33.6151 48.9541 34.1603 49.6265 34.1603Z" fill="#ED1C24"/>
<path d="M53.0052 34.1603C53.6776 34.1603 54.2227 33.6151 54.2227 32.9427C54.2227 32.2703 53.6776 31.7251 53.0052 31.7251C52.3327 31.7251 51.7876 32.2703 51.7876 32.9427C51.7876 33.6151 52.3327 34.1603 53.0052 34.1603Z" fill="#FBB040"/>
<path d="M56.3868 34.1603C57.0592 34.1603 57.6043 33.6151 57.6043 32.9427C57.6043 32.2703 57.0592 31.7251 56.3868 31.7251C55.7143 31.7251 55.1692 32.2703 55.1692 32.9427C55.1692 33.6151 55.7143 34.1603 56.3868 34.1603Z" fill="#2BB673"/>
<g opacity="0.3">
<path d="M148.325 75.1723H104.929C103.657 75.1723 102.626 76.2035 102.626 77.4757V100.379C102.626 101.651 103.657 102.683 104.929 102.683H148.325C149.597 102.683 150.628 101.651 150.628 100.379V77.4757C150.628 76.2035 149.597 75.1723 148.325 75.1723Z" fill="black"/>
</g>
<path d="M152.604 72.2336H107.43C106.649 72.2336 106.016 72.8669 106.016 73.648V98.3297C106.016 99.1108 106.649 99.744 107.43 99.744H152.604C153.385 99.744 154.018 99.1108 154.018 98.3297V73.648C154.018 72.8669 153.385 72.2336 152.604 72.2336Z" fill="#0092EF"/>
<path d="M112.881 79.1254H119.219C119.832 79.1193 120.441 79.2291 121.014 79.449C121.52 79.6626 121.975 79.9815 122.348 80.3846C122.715 80.7772 122.989 81.2468 123.15 81.759C123.322 82.298 123.405 82.8613 123.397 83.4269C123.397 84.7612 123.064 85.837 122.396 86.6543C121.729 87.4716 120.628 87.8852 119.094 87.8952H115.758V92.8522H112.881V79.1254ZM118.435 85.5401C119.059 85.5401 119.524 85.4445 119.83 85.2532C120.106 85.097 120.316 84.8457 120.422 84.5461C120.506 84.216 120.545 83.8759 120.537 83.5353C120.537 82.8865 120.39 82.3828 120.096 82.0342C119.803 81.6856 119.129 81.5188 118.112 81.5188H115.763V85.5468L118.435 85.5401Z" fill="white"/>
<path d="M125.52 79.1253H128.402V84.3174H133.766V79.1253H136.63V92.8521H133.766V86.7042H128.402V92.8521H125.52V79.1253Z" fill="white"/>
<path d="M138.539 79.1254H144.877C145.49 79.1191 146.099 79.2289 146.672 79.449C147.178 79.6625 147.633 79.9815 148.006 80.3846C148.374 80.7763 148.648 81.2462 148.808 81.759C148.981 82.2979 149.064 82.8612 149.057 83.4269C149.057 84.7612 148.723 85.837 148.056 86.6543C147.389 87.4716 146.288 87.8852 144.754 87.8952H141.418V92.8522H138.539V79.1254ZM144.095 85.5401C144.719 85.5401 145.182 85.445 145.489 85.2532C145.766 85.0974 145.976 84.8459 146.08 84.5461C146.164 84.216 146.203 83.8759 146.195 83.5353C146.195 82.8865 146.048 82.3828 145.756 82.0342C145.464 81.6856 144.789 81.5105 143.773 81.5105H141.423V85.5385L144.095 85.5401Z" fill="white"/>
<path d="M54.7374 38.6606C54.7825 38.6606 54.8192 53.9186 54.8192 72.7375C54.8192 91.5565 54.7825 106.819 54.7374 106.819C54.6924 106.819 54.6541 91.5632 54.6541 72.7375C54.6541 53.9119 54.6907 38.6606 54.7374 38.6606Z" fill="#0F4B64"/>
<path d="M91.3436 112.208C91.3489 112.253 91.3517 112.298 91.3519 112.343C91.3519 112.44 91.3519 112.572 91.3519 112.74C91.3519 113.097 91.3519 113.609 91.3669 114.266C91.3669 115.6 91.3819 117.515 91.3936 119.877C91.3936 121.063 91.3936 122.361 91.4036 123.753C91.4036 124.102 91.4036 124.455 91.4036 124.816C91.4036 125.176 91.422 125.538 91.3819 125.92C91.3074 126.513 91.0499 127.069 90.6452 127.51C90.2405 127.95 89.7087 128.254 89.1236 128.378C88.7165 128.436 88.305 128.455 87.8943 128.437H80.1086L61.5948 128.413L55.984 128.387L54.4578 128.37L54.0609 128.362C54.016 128.366 53.9707 128.366 53.9258 128.362C53.9708 128.359 54.0159 128.359 54.0609 128.362L54.4578 128.353L55.984 128.338L61.5948 128.312L80.1086 128.288H87.8977C88.2976 128.308 88.6986 128.29 89.0952 128.235C89.6518 128.12 90.1586 127.834 90.545 127.417C90.9313 127.001 91.1778 126.474 91.2502 125.91C91.2902 125.556 91.2685 125.183 91.2752 124.824C91.2818 124.465 91.2752 124.11 91.2752 123.762C91.2752 122.369 91.2752 121.071 91.2869 119.885C91.2969 117.524 91.3069 115.607 91.3119 114.275C91.3119 113.617 91.3235 113.107 91.3286 112.748C91.3286 112.582 91.3285 112.448 91.3369 112.351C91.3337 112.303 91.3359 112.255 91.3436 112.208Z" fill="#0092EF"/>
<path d="M92.4543 111.099C92.4543 111.319 92.3891 111.534 92.267 111.716C92.1449 111.899 91.9713 112.041 91.7682 112.125C91.5651 112.209 91.3417 112.231 91.1262 112.188C90.9106 112.145 90.7127 112.039 90.5574 111.884C90.4021 111.728 90.2965 111.53 90.2538 111.315C90.2111 111.099 90.2334 110.876 90.3177 110.673C90.402 110.47 90.5447 110.296 90.7276 110.175C90.9105 110.053 91.1254 109.988 91.3452 109.988C91.4909 109.988 91.6353 110.017 91.77 110.073C91.9047 110.129 92.027 110.21 92.13 110.314C92.233 110.417 92.3147 110.539 92.3704 110.674C92.426 110.809 92.4545 110.953 92.4543 111.099Z" fill="#0092EF"/>
<path d="M55.0665 128.185C55.0665 128.404 55.0014 128.619 54.8795 128.801C54.7576 128.983 54.5844 129.126 54.3817 129.21C54.1791 129.293 53.9561 129.315 53.7409 129.273C53.5258 129.23 53.3281 129.124 53.173 128.969C53.0179 128.814 52.9123 128.616 52.8695 128.401C52.8267 128.186 52.8486 127.963 52.9326 127.76C53.0165 127.558 53.1587 127.384 53.3411 127.263C53.5235 127.141 53.7379 127.076 53.9573 127.076C54.2515 127.076 54.5336 127.192 54.7416 127.4C54.9496 127.608 55.0665 127.891 55.0665 128.185Z" fill="#0092EF"/>
<path d="M100.726 13.0967H77.4057C75.9328 13.0967 74.7388 14.2908 74.7388 15.7637V29.3771C74.7388 30.85 75.9328 32.0441 77.4057 32.0441H100.726C102.199 32.0441 103.393 30.85 103.393 29.3771V15.7637C103.393 14.2908 102.199 13.0967 100.726 13.0967Z" fill="#0092EF"/>
<g opacity="0.3">
<path d="M100.726 13.0967H77.4057C75.9328 13.0967 74.7388 14.2908 74.7388 15.7637V29.3771C74.7388 30.85 75.9328 32.0441 77.4057 32.0441H100.726C102.199 32.0441 103.393 30.85 103.393 29.3771V15.7637C103.393 14.2908 102.199 13.0967 100.726 13.0967Z" fill="black"/>
</g>
<path d="M98.8018 13.0967H75.4812C74.0083 13.0967 72.8142 14.2908 72.8142 15.7637V29.3771C72.8142 30.85 74.0083 32.0441 75.4812 32.0441H98.8018C100.275 32.0441 101.469 30.85 101.469 29.3771V15.7637C101.469 14.2908 100.275 13.0967 98.8018 13.0967Z" fill="#0092EF"/>
<path d="M84.0457 21.5041L80.1411 22.8885L84.0457 24.2712V26.0592L78.0095 23.8309V21.9461L84.0457 19.7178V21.5041Z" fill="white"/>
<path d="M88.3428 16.8644H90.411L86.3714 28.398H84.3015L88.3428 16.8644Z" fill="white"/>
<path d="M96.583 21.9461V23.8309L90.5469 26.0592V24.2712L94.4514 22.8885L90.5469 21.5041V19.7178L96.583 21.9461Z" fill="white"/>
<path d="M47.9368 93.8229H7.39005C6.70932 93.8229 6.15747 94.3747 6.15747 95.0555V133.709C6.15747 134.39 6.70932 134.942 7.39005 134.942H47.9368C48.6175 134.942 49.1694 134.39 49.1694 133.709V95.0555C49.1694 94.3747 48.6175 93.8229 47.9368 93.8229Z" fill="#333333"/>
<path d="M49.245 106.949C49.245 106.994 39.6379 107.031 27.7891 107.031C15.9403 107.031 6.33813 106.994 6.33813 106.949C6.33813 106.904 15.9436 106.866 27.7957 106.866C39.6479 106.866 49.245 106.902 49.245 106.949Z" fill="white"/>
<path d="M49.245 120.151C49.245 120.196 39.6379 120.233 27.7891 120.233C15.9403 120.233 6.33813 120.196 6.33813 120.151C6.33813 120.106 15.9436 120.067 27.7957 120.067C39.6479 120.067 49.245 120.104 49.245 120.151Z" fill="white"/>
<path d="M13.9772 101.699C14.494 101.699 14.9129 101.28 14.9129 100.763C14.9129 100.246 14.494 99.8274 13.9772 99.8274C13.4604 99.8274 13.0415 100.246 13.0415 100.763C13.0415 101.28 13.4604 101.699 13.9772 101.699Z" fill="#0092EF"/>
<path d="M17.3329 101.699C17.8497 101.699 18.2686 101.28 18.2686 100.763C18.2686 100.246 17.8497 99.8274 17.3329 99.8274C16.8161 99.8274 16.3972 100.246 16.3972 100.763C16.3972 101.28 16.8161 101.699 17.3329 101.699Z" fill="white"/>
<path d="M38.5141 99.3238H38.3523C38.1607 99.3238 38.0054 99.4791 38.0054 99.6707V102.163C38.0054 102.354 38.1607 102.509 38.3523 102.509H38.5141C38.7057 102.509 38.861 102.354 38.861 102.163V99.6707C38.861 99.4791 38.7057 99.3238 38.5141 99.3238Z" fill="#0092EF"/>
<path d="M40.6696 99.3238H40.5078C40.3162 99.3238 40.1609 99.4791 40.1609 99.6707V102.163C40.1609 102.354 40.3162 102.509 40.5078 102.509H40.6696C40.8612 102.509 41.0165 102.354 41.0165 102.163V99.6707C41.0165 99.4791 40.8612 99.3238 40.6696 99.3238Z" fill="white"/>
<path d="M42.6557 99.3238H42.4939C42.3023 99.3238 42.147 99.4791 42.147 99.6707V102.163C42.147 102.354 42.3023 102.509 42.4939 102.509H42.6557C42.8473 102.509 43.0026 102.354 43.0026 102.163V99.6707C43.0026 99.4791 42.8473 99.3238 42.6557 99.3238Z" fill="white"/>
<path d="M36.3307 99.3238H36.1689C35.9773 99.3238 35.822 99.4791 35.822 99.6707V102.163C35.822 102.354 35.9773 102.509 36.1689 102.509H36.3307C36.5223 102.509 36.6777 102.354 36.6777 102.163V99.6707C36.6777 99.4791 36.5223 99.3238 36.3307 99.3238Z" fill="#0092EF"/>
<path d="M13.9772 114.523C14.494 114.523 14.9129 114.104 14.9129 113.587C14.9129 113.071 14.494 112.652 13.9772 112.652C13.4604 112.652 13.0415 113.071 13.0415 113.587C13.0415 114.104 13.4604 114.523 13.9772 114.523Z" fill="#0092EF"/>
<path d="M17.1513 114.523C17.668 114.523 18.087 114.104 18.087 113.587C18.087 113.071 17.668 112.652 17.1513 112.652C16.6345 112.652 16.2156 113.071 16.2156 113.587C16.2156 114.104 16.6345 114.523 17.1513 114.523Z" fill="white"/>
<path d="M38.5141 112.15H38.3523C38.1607 112.15 38.0054 112.305 38.0054 112.497V114.989C38.0054 115.18 38.1607 115.336 38.3523 115.336H38.5141C38.7057 115.336 38.861 115.18 38.861 114.989V112.497C38.861 112.305 38.7057 112.15 38.5141 112.15Z" fill="#0092EF"/>
<path d="M40.6696 112.15H40.5078C40.3162 112.15 40.1609 112.305 40.1609 112.497V114.989C40.1609 115.18 40.3162 115.336 40.5078 115.336H40.6696C40.8612 115.336 41.0165 115.18 41.0165 114.989V112.497C41.0165 112.305 40.8612 112.15 40.6696 112.15Z" fill="white"/>
<path d="M42.6557 112.15H42.4939C42.3023 112.15 42.147 112.305 42.147 112.497V114.989C42.147 115.18 42.3023 115.336 42.4939 115.336H42.6557C42.8473 115.336 43.0026 115.18 43.0026 114.989V112.497C43.0026 112.305 42.8473 112.15 42.6557 112.15Z" fill="white"/>
<path d="M36.3307 112.15H36.1689C35.9773 112.15 35.822 112.305 35.822 112.497V114.989C35.822 115.18 35.9773 115.336 36.1689 115.336H36.3307C36.5223 115.336 36.6777 115.18 36.6777 114.989V112.497C36.6777 112.305 36.5223 112.15 36.3307 112.15Z" fill="#0092EF"/>
<path d="M13.9772 128.329C14.494 128.329 14.9129 127.91 14.9129 127.393C14.9129 126.876 14.494 126.457 13.9772 126.457C13.4604 126.457 13.0415 126.876 13.0415 127.393C13.0415 127.91 13.4604 128.329 13.9772 128.329Z" fill="#0092EF"/>
<path d="M17.4213 128.329C17.9381 128.329 18.357 127.91 18.357 127.393C18.357 126.876 17.9381 126.457 17.4213 126.457C16.9045 126.457 16.4856 126.876 16.4856 127.393C16.4856 127.91 16.9045 128.329 17.4213 128.329Z" fill="white"/>
<path d="M38.5141 125.953H38.3523C38.1607 125.953 38.0054 126.109 38.0054 126.3V128.792C38.0054 128.984 38.1607 129.139 38.3523 129.139H38.5141C38.7057 129.139 38.861 128.984 38.861 128.792V126.3C38.861 126.109 38.7057 125.953 38.5141 125.953Z" fill="#0092EF"/>
<path d="M40.6696 125.953H40.5078C40.3162 125.953 40.1609 126.109 40.1609 126.3V128.792C40.1609 128.984 40.3162 129.139 40.5078 129.139H40.6696C40.8612 129.139 41.0165 128.984 41.0165 128.792V126.3C41.0165 126.109 40.8612 125.953 40.6696 125.953Z" fill="white"/>
<path d="M42.6557 125.953H42.4939C42.3023 125.953 42.147 126.109 42.147 126.3V128.792C42.147 128.984 42.3023 129.139 42.4939 129.139H42.6557C42.8473 129.139 43.0026 128.984 43.0026 128.792V126.3C43.0026 126.109 42.8473 125.953 42.6557 125.953Z" fill="white"/>
<path d="M36.3307 125.953H36.1689C35.9773 125.953 35.822 126.109 35.822 126.3V128.792C35.822 128.984 35.9773 129.139 36.1689 129.139H36.3307C36.5223 129.139 36.6777 128.984 36.6777 128.792V126.3C36.6777 126.109 36.5223 125.953 36.3307 125.953Z" fill="#0092EF"/>
<path d="M27.5986 35.0576C27.5745 34.8739 27.5141 34.6969 27.4207 34.5369C27.3274 34.3769 27.2031 34.2371 27.0551 34.1258C26.907 34.0144 26.7383 33.9337 26.5587 33.8884C26.3791 33.843 26.1923 33.8339 26.0091 33.8617C25.7846 33.4613 25.4143 33.1629 24.9753 33.0287C24.5363 32.8945 24.0624 32.9348 23.6524 33.1412C23.2704 33.353 22.9852 33.7032 22.6099 33.9301C22.2347 34.1569 21.8327 34.2436 21.4557 34.4304C21.0788 34.6173 20.7152 34.9308 20.6685 35.3411C20.6151 35.8031 20.9837 36.2301 21.4157 36.4036C21.8477 36.577 22.3314 36.5537 22.7967 36.5287C22.7011 36.597 22.6337 36.698 22.6072 36.8126C22.5808 36.9272 22.5972 37.0474 22.6533 37.1508C22.7739 37.3542 22.9641 37.507 23.1887 37.5811C23.5533 37.7213 23.9496 37.758 24.3337 37.687C24.7178 37.6161 25.0748 37.4403 25.3653 37.1791L26.236 36.512C26.4217 36.5084 26.6048 36.4676 26.7745 36.3921C26.9443 36.3166 27.0971 36.2079 27.2242 36.0723C27.3512 35.9367 27.4497 35.7771 27.5141 35.6028C27.5784 35.4285 27.6071 35.2431 27.5986 35.0576Z" fill="#0F2832"/>
<path d="M25.4237 37.9685C25.3377 38.0421 25.2277 38.0815 25.1146 38.0793C25.0014 38.0772 24.893 38.0336 24.8099 37.9568C24.7308 37.8758 24.6754 37.7747 24.6495 37.6645C24.6236 37.5543 24.6283 37.4391 24.6631 37.3314C24.7363 37.115 24.8834 36.9314 25.0784 36.8126C25.2719 36.6955 25.4815 36.6073 25.7005 36.5508C26.0333 36.4445 26.3778 36.379 26.7263 36.3556C26.8504 36.343 26.9758 36.3584 27.0932 36.4007C27.1514 36.4222 27.2026 36.4589 27.2417 36.507C27.2807 36.5552 27.306 36.6129 27.3151 36.6742C27.3284 36.841 27.1766 36.9844 27.0382 37.0878C26.5136 37.4711 25.9554 37.8061 25.3703 38.0886" fill="#0092EF"/>
<path d="M24.9156 37.8792C24.09 36.9585 22.0368 37.0803 21.5448 37.679C21.1821 37.5051 20.7664 37.4774 20.3839 37.6016C20.0013 37.7258 19.6812 37.9924 19.4899 38.3462L17.3033 38.8115C16.9297 38.8916 16.5394 38.9783 16.2508 39.2285C15.9623 39.4787 15.8255 39.9457 16.059 40.2459C15.2885 40.4411 14.9799 41.5803 15.547 42.1407C15.4734 42.2258 15.4178 42.325 15.3836 42.4322C15.3493 42.5394 15.3371 42.6525 15.3477 42.7645C15.3583 42.8766 15.3915 42.9853 15.4452 43.0842C15.499 43.1831 15.5722 43.2701 15.6604 43.3399C15.0521 44.0608 14.5704 44.8797 14.236 45.7617C14.0976 46.1303 13.9842 46.5423 14.1193 46.9126C14.2544 47.2828 14.7381 47.5414 15.0583 47.3129C14.9504 47.4638 14.888 47.6426 14.8785 47.8279C14.8691 48.0133 14.9129 48.1974 15.0049 48.3586C14.6363 48.3586 14.5212 48.9357 14.7748 49.2059C15.0283 49.4761 15.4419 49.5061 15.8072 49.5011C16.1725 49.4961 16.5778 49.4778 16.8796 49.6913C16.8763 49.7364 16.8637 49.7804 16.8428 49.8206C16.8219 49.8607 16.793 49.8962 16.7579 49.9248C16.1191 50.4368 15.9239 51.3242 16.4043 51.993L16.5244 52.1598C16.7362 52.465 17.2633 52.7469 17.5918 52.922C18.4258 53.3623 18.9262 53.284 19.8535 53.4224C19.595 54.0212 21.1011 55.3655 22.8441 54.0679C26.2966 55.0202 28.7868 55.3922 32.3678 55.4272C32.8798 55.4272 33.4936 55.3672 33.7238 54.9102C34.1374 55.0236 34.5861 54.8334 34.8913 54.5349C35.1824 54.2196 35.4166 53.8562 35.5835 53.4607C36.027 53.3356 36.4206 53.0758 36.7101 52.7173C36.9996 52.3587 37.1707 51.9192 37.1997 51.4593C37.5008 51.2251 37.7498 50.9308 37.931 50.5951C38.1122 50.2594 38.2216 49.8897 38.2521 49.5095C39.1144 49.2526 39.5964 48.1401 39.1928 47.3412C39.0151 46.2833 38.6634 45.262 38.152 44.319C38.7391 44.1955 38.9643 43.4083 38.7275 42.8562C38.4906 42.3041 37.9602 41.9489 37.4565 41.6236C37.8935 41.7437 38.2788 41.1966 38.1787 40.7546C38.0786 40.3127 37.6783 40.0058 37.2947 39.7689C36.7267 39.4231 36.1191 39.147 35.4851 38.9466C35.2832 38.1744 34.3042 37.2887 33.5837 36.9452C30.6815 35.5458 28.6433 35.1822 24.9106 37.8758" fill="#0F2832"/>
<path d="M22.6713 42.5519C22.6313 41.9398 22.5295 41.3327 23.1366 41.241L29.3262 39.3746C31.3277 39.071 32.7671 41.4811 32.9856 43.4876C33.2274 45.7176 33.4359 48.448 33.2458 50.1292C33.147 51.0873 32.7793 51.9979 32.1853 52.7561C31.5912 53.5142 30.7949 54.089 29.8883 54.4141L29.965 56.4639C29.7082 58.0418 29.3095 59.8147 28.6691 60.4469C26.4791 60.0366 22.8948 55.223 22.8948 55.223L22.6713 42.5519Z" fill="#FF9D8D"/>
<path d="M29.7445 48.5863C29.7445 48.5613 30.0264 48.4979 30.4901 48.4196C30.6085 48.4029 30.7186 48.3745 30.7353 48.2928C30.7391 48.1702 30.706 48.0493 30.6402 47.9459L30.2499 47.0619C29.7062 45.8026 29.3075 44.7635 29.3592 44.7418C29.411 44.7202 29.8913 45.7242 30.435 46.9835C30.5651 47.2954 30.6919 47.5906 30.8103 47.8741C30.8915 48.0136 30.921 48.1771 30.8937 48.3362C30.8782 48.3786 30.8534 48.4169 30.8211 48.4484C30.7887 48.4799 30.7497 48.5036 30.7069 48.518C30.6419 48.5383 30.5747 48.5506 30.5068 48.5547C30.0381 48.598 29.7479 48.613 29.7445 48.5863Z" fill="#0F2832"/>
<path d="M29.8887 54.4135C29.8887 54.4135 28.064 54.2984 25.7673 53.0558C25.7673 53.0558 26.5446 55.1724 29.9171 55.4309L29.8887 54.4135Z" fill="#7C4235"/>
<path d="M27.7688 43.4268C27.7288 43.5553 27.2684 43.5169 26.723 43.607C26.1776 43.697 25.7507 43.8638 25.6739 43.7554C25.6389 43.702 25.7106 43.5803 25.8824 43.4502C26.11 43.2866 26.3738 43.1807 26.6513 43.1416C26.93 43.0947 27.2158 43.1147 27.4853 43.2C27.6871 43.2717 27.7855 43.3668 27.7688 43.4268Z" fill="#0F2832"/>
<path d="M32.2225 43.3498C32.1458 43.4583 31.8222 43.3649 31.4369 43.3765C31.0517 43.3882 30.7331 43.4799 30.653 43.3765C30.618 43.3248 30.6647 43.2097 30.8015 43.1113C30.9846 42.9795 31.2046 42.9089 31.4303 42.9095C31.656 42.9031 31.8781 42.9672 32.0657 43.093C32.2058 43.1914 32.2559 43.2981 32.2225 43.3498Z" fill="#0F2832"/>
<path d="M34.4957 45.0989C34.481 44.5675 34.2837 44.0574 33.9369 43.6545C33.7401 43.4443 33.4899 43.2842 33.3148 43.054C32.9378 42.5536 32.9812 41.8698 32.8294 41.2677C32.7221 40.879 32.5235 40.5216 32.2502 40.2252C31.977 39.9287 31.6369 39.7017 31.2583 39.5631C30.6295 39.3379 29.9239 39.3696 29.3252 39.0627C28.8882 38.8309 28.5563 38.4289 28.1059 38.2288C27.2303 37.8301 26.2145 38.2788 25.3889 38.7725C25.2221 39.4297 25.6408 39.9967 26.0411 40.5422C26.2437 40.8145 26.5029 41.0396 26.801 41.202C27.099 41.3644 27.4287 41.4602 27.7674 41.4829C28.2927 41.5129 28.9049 41.3945 29.2685 41.7681C29.6321 42.1417 29.5053 42.8555 29.8255 43.3059C30.2809 43.9497 31.3166 43.7045 31.9938 44.1031C32.5192 44.41 32.741 45.0388 33.0062 45.5876C33.2714 46.1363 33.7301 46.7084 34.3405 46.68C34.4528 46.1607 34.5049 45.6301 34.4957 45.0989Z" fill="#0F2832"/>
<path d="M26.6963 39.9551C25.16 39.9345 23.6343 40.2109 22.2029 40.769C21.7776 40.9358 21.3389 41.1477 21.0954 41.5346C20.8836 41.8682 20.8586 42.2968 20.8636 42.7021C20.8786 43.9597 21.3856 45.4975 21.8643 46.6601L23.4338 47.5974C24.6431 47.3105 24.086 45.224 24.0276 44.1782C24.4479 43.9858 24.8057 43.6794 25.0605 43.2937C25.3152 42.9081 25.4566 42.4587 25.4687 41.9966C25.8143 41.7713 26.1044 41.4705 26.317 41.1169C26.5296 40.7633 26.6593 40.3661 26.6963 39.9551Z" fill="#0F2832"/>
<path d="M23.4145 47.1419C23.3661 46.4231 22.4838 46.283 21.8667 46.6549C21.5331 46.8584 21.2729 47.2603 21.3163 48.0242C21.4347 50.0591 23.4528 49.5254 23.4528 49.462C23.4528 49.3986 23.4712 47.9859 23.4145 47.1419Z" fill="#FF9D8D"/>
<path d="M22.7872 48.7265C22.7771 48.7265 22.7521 48.7532 22.6954 48.7849C22.6129 48.8253 22.5179 48.8325 22.4302 48.8049C22.2101 48.7399 22.0099 48.408 21.9782 48.0427C21.9637 47.8684 21.9876 47.693 22.0483 47.529C22.0636 47.4643 22.0943 47.4042 22.1379 47.354C22.1815 47.3037 22.2366 47.2648 22.2985 47.2404C22.3383 47.2263 22.3819 47.2264 22.4217 47.2407C22.4615 47.255 22.4952 47.2826 22.517 47.3188C22.547 47.3755 22.537 47.4156 22.5486 47.4189C22.5603 47.4222 22.5903 47.3822 22.5687 47.2988C22.5546 47.2495 22.524 47.2065 22.4819 47.1771C22.4233 47.1373 22.3514 47.1223 22.2818 47.1354C22.1997 47.1566 22.1243 47.1983 22.0627 47.2567C22.0011 47.315 21.9554 47.3881 21.9299 47.4689C21.8531 47.6505 21.8221 47.8481 21.8398 48.0444C21.8765 48.453 22.11 48.8249 22.4085 48.8933C22.464 48.9058 22.5216 48.9057 22.577 48.893C22.6324 48.8803 22.6843 48.8553 22.7288 48.8199C22.7855 48.7766 22.7938 48.7299 22.7872 48.7265Z" fill="#7C4235"/>
<path d="M22.5617 49.5812C22.5622 49.59 22.5622 49.5989 22.5617 49.6078C22.5569 49.6352 22.5479 49.6616 22.535 49.6862C22.4825 49.7817 22.3989 49.8565 22.2982 49.8981C22.1405 49.9676 21.9701 50.0034 21.7978 50.0031C21.6862 50.0067 21.5745 49.9994 21.4642 49.9814C21.3404 49.9648 21.2199 49.9288 21.1073 49.8747L21.1323 49.863C21.1042 50.0354 21.0321 50.1975 20.9228 50.3338C20.8135 50.47 20.6709 50.5756 20.5087 50.6404C20.3466 50.7052 20.1704 50.727 19.9973 50.7036C19.8243 50.6802 19.6602 50.6124 19.5211 50.5068H19.5545C19.5242 50.5529 19.485 50.5925 19.4391 50.6231C19.3933 50.6538 19.3418 50.6749 19.2876 50.6853C19.1762 50.7091 19.0602 50.6999 18.954 50.6586C18.8444 50.618 18.7512 50.5424 18.6888 50.4435C18.6267 50.3428 18.5911 50.228 18.5854 50.1099C18.5764 49.8647 18.6544 49.6242 18.8056 49.431C18.9626 49.2352 19.1429 49.0593 19.3427 48.9073V48.9557C19.2582 48.9022 19.1859 48.8317 19.1302 48.7487C19.0745 48.6657 19.0366 48.5721 19.0191 48.4737C18.9786 48.2723 18.9983 48.0635 19.0758 47.8732C19.1614 47.685 19.2826 47.5151 19.4327 47.3728C19.5839 47.2265 19.7444 47.09 19.9131 46.9642V47.0109C19.8402 46.932 19.7847 46.8387 19.7502 46.737C19.7157 46.6353 19.703 46.5274 19.7129 46.4205C19.7272 46.2004 19.8068 45.9896 19.9414 45.815C20.2033 45.4814 20.5836 45.2963 20.9338 45.1212L20.9172 45.1562C20.8649 44.9443 20.8646 44.7228 20.9165 44.5108C20.9683 44.2987 21.0707 44.1024 21.215 43.9385C21.3592 43.7746 21.5409 43.6481 21.7446 43.5697C21.9484 43.4913 22.168 43.4634 22.3849 43.4883L22.3532 43.5233C22.3202 43.3483 22.3277 43.168 22.3751 42.9962C22.4225 42.8245 22.5086 42.6659 22.6267 42.5326C22.7314 42.4045 22.8624 42.3004 23.011 42.2276C23.1595 42.1548 23.322 42.1149 23.4874 42.1106L23.4607 42.1356C23.4655 41.9624 23.5096 41.7925 23.5896 41.6388C23.6696 41.4851 23.7835 41.3516 23.9227 41.2483C24.041 41.1532 24.1775 41.0833 24.3237 41.0429C24.47 41.0025 24.623 40.9923 24.7733 41.0131L24.75 41.0332C24.7613 40.8475 24.8186 40.6675 24.9168 40.5094C24.9976 40.3683 25.102 40.2419 25.2253 40.1358C25.4174 39.9612 25.6621 39.8556 25.9209 39.8356H25.9976H26.0693C26.1124 39.8377 26.1553 39.8428 26.1977 39.8506C26.2636 39.8636 26.3283 39.882 26.3912 39.9056L26.5063 39.954C26.5195 39.9579 26.5319 39.9641 26.543 39.9724L26.5029 39.959L26.3879 39.9157C26.3245 39.8954 26.2599 39.8792 26.1944 39.8673C26.1525 39.8598 26.1101 39.8559 26.0676 39.8556H25.9976H25.9225C25.6697 39.8788 25.4316 39.9849 25.2454 40.1575C25.1262 40.2631 25.0253 40.3876 24.9468 40.5261C24.8559 40.6781 24.8027 40.8497 24.7917 41.0265V41.0498H24.7683C24.6237 41.0314 24.4767 41.0426 24.3365 41.0828C24.1963 41.1229 24.0658 41.1912 23.9527 41.2833C23.8199 41.3826 23.7115 41.5108 23.6355 41.6581C23.5595 41.8055 23.518 41.9682 23.5141 42.134V42.1473H23.4891C23.3312 42.1524 23.1762 42.1915 23.0349 42.262C22.8935 42.3326 22.7691 42.4328 22.6701 42.5559C22.5577 42.6828 22.4759 42.8336 22.4308 42.997C22.3857 43.1603 22.3785 43.3318 22.4099 43.4983L22.4199 43.5367H22.3799C22.1724 43.5126 21.9622 43.5392 21.7673 43.6142C21.5724 43.6893 21.3986 43.8105 21.2609 43.9674C21.1231 44.1244 21.0255 44.3124 20.9763 44.5154C20.9272 44.7184 20.9281 44.9303 20.9789 45.1329V45.1579L20.9555 45.1679C20.6053 45.343 20.235 45.5265 19.9865 45.845C19.8585 46.0091 19.7829 46.2078 19.7696 46.4155C19.7603 46.5139 19.7718 46.6132 19.8034 46.7069C19.8351 46.8006 19.886 46.8865 19.9531 46.9592L19.9765 46.9842L19.9498 47.0042C19.6162 47.2594 19.2826 47.528 19.1308 47.8949C19.0568 48.0737 19.0371 48.2704 19.0741 48.4603C19.09 48.5509 19.1244 48.6372 19.1752 48.7138C19.226 48.7905 19.2921 48.8558 19.3693 48.9056L19.406 48.9257L19.3727 48.9523C19.1764 49.1004 18.9993 49.2725 18.8456 49.4644C18.702 49.6472 18.6266 49.8742 18.6321 50.1065C18.6328 50.2134 18.6647 50.3177 18.724 50.4067C18.7833 50.4956 18.8673 50.5652 18.9657 50.6069C19.0566 50.649 19.1591 50.6593 19.2565 50.636C19.354 50.6127 19.4408 50.5572 19.5028 50.4785L19.5178 50.4568L19.5378 50.4718C19.6832 50.581 19.856 50.6478 20.037 50.6649C20.2181 50.6819 20.4003 50.6486 20.5636 50.5685C20.6992 50.4982 20.8169 50.3977 20.9077 50.2749C20.9984 50.152 21.0599 50.01 21.0873 49.8597V49.838L21.1073 49.848C21.2168 49.9014 21.3338 49.938 21.4542 49.9564C21.56 49.9746 21.6672 49.9824 21.7745 49.9798C21.9461 49.9835 22.1165 49.9511 22.2748 49.8847C22.3736 49.8465 22.4565 49.7759 22.51 49.6846C22.5517 49.6195 22.5567 49.5795 22.5617 49.5812Z" fill="#375A64"/>
<path d="M14.8057 47.4071C14.7764 47.3684 14.7508 47.3271 14.729 47.2837C14.6669 47.1582 14.6306 47.0215 14.6222 46.8817C14.6053 46.6562 14.664 46.4314 14.789 46.2429C14.8724 46.1176 14.9811 46.011 15.108 45.93C15.235 45.849 15.3774 45.7954 15.5263 45.7726L15.5096 45.7976C15.4425 45.4528 15.508 45.0954 15.693 44.7969C15.7937 44.6285 15.9297 44.4839 16.0917 44.3732C16.2679 44.2678 16.4539 44.1795 16.6471 44.1097C16.7432 44.0701 16.8331 44.0167 16.914 43.9512C16.9942 43.883 17.0581 43.7974 17.1008 43.7011C17.1908 43.5059 17.2192 43.2757 17.3343 43.0656C17.4559 42.8511 17.6389 42.6779 17.8597 42.5682C18.0805 42.4585 18.3291 42.4174 18.5735 42.4501L18.5385 42.4851C18.5026 42.2373 18.5243 41.9845 18.6019 41.7463C18.6795 41.5082 18.8109 41.2911 18.9859 41.1119C19.1609 40.9327 19.3748 40.7962 19.611 40.713C19.8473 40.6298 20.0995 40.6021 20.3482 40.6321L20.3148 40.6655C20.2862 40.3942 20.3357 40.1204 20.4575 39.8763C20.5793 39.6322 20.7684 39.428 21.0024 39.2878C21.2364 39.1476 21.5056 39.0772 21.7782 39.0849C22.0509 39.0925 22.3157 39.178 22.5415 39.3311H22.5081C22.711 39.1372 22.9534 38.9893 23.2186 38.8975C23.4539 38.8105 23.6995 38.7544 23.9492 38.7307C24.3534 38.6861 24.7623 38.7137 25.1567 38.8124C25.4097 38.8722 25.6513 38.9724 25.8723 39.1093C25.9307 39.1452 25.9865 39.1853 26.0391 39.2294L26.0924 39.2744C26.0924 39.2744 26.0157 39.2161 25.8639 39.1227C25.6414 38.9924 25.4 38.8973 25.1484 38.8408C24.7574 38.7481 24.3532 38.7249 23.9542 38.7724C23.7085 38.7975 23.467 38.8535 23.2353 38.9392C22.9776 39.0311 22.7422 39.1767 22.5448 39.3662L22.5298 39.3812L22.5114 39.3695C22.294 39.2231 22.0392 39.1418 21.7771 39.1353C21.515 39.1288 21.2565 39.1973 21.032 39.3328C20.8075 39.4682 20.6264 39.665 20.51 39.8999C20.3936 40.1348 20.3467 40.3981 20.3749 40.6588V40.6972H20.3365C20.0979 40.6693 19.856 40.6965 19.6296 40.7768C19.4032 40.857 19.1981 40.9881 19.0303 41.16C18.8624 41.3319 18.7362 41.5399 18.6614 41.7682C18.5865 41.9965 18.565 42.2389 18.5985 42.4768V42.5185H18.5585C18.3262 42.4881 18.0902 42.5273 17.8802 42.6312C17.6703 42.7352 17.4959 42.8991 17.3793 43.1023C17.2709 43.2974 17.2409 43.5276 17.1458 43.7327C17.0999 43.8365 17.0315 43.9288 16.9456 44.0029C16.8603 44.071 16.766 44.1271 16.6654 44.1697C16.4742 44.2369 16.2899 44.3224 16.115 44.4249C15.9581 44.5304 15.8265 44.6694 15.7297 44.8319C15.5477 45.1205 15.4815 45.4673 15.5446 45.8026V45.8243H15.5229C15.3791 45.8455 15.2411 45.8961 15.1177 45.973C14.9943 46.0499 14.8881 46.1515 14.8057 46.2713C14.6843 46.4546 14.6258 46.6723 14.6389 46.8918C14.6444 47.0297 14.6773 47.1652 14.7357 47.2904C14.7807 47.3638 14.8091 47.4055 14.8057 47.4071Z" fill="#375A64"/>
<path d="M34.2722 47.9553C34.2602 47.9291 34.254 47.9007 34.254 47.8719C34.254 47.8431 34.2602 47.8147 34.2722 47.7885C34.2964 47.7235 34.3372 47.666 34.3906 47.6217C34.4651 47.5628 34.5508 47.5197 34.6424 47.495C34.7538 47.4663 34.8605 47.422 34.9593 47.3632C35.07 47.2797 35.1507 47.1627 35.1895 47.0296C35.2356 46.8785 35.2526 46.72 35.2395 46.5626C35.2395 46.3958 35.2062 46.2174 35.2062 46.0272C35.2062 45.6419 35.373 45.25 35.4647 44.8247C35.5181 44.6063 35.5277 44.3796 35.4931 44.1575C35.4762 44.0411 35.4345 43.9297 35.3705 43.8309C35.3066 43.7322 35.2221 43.6484 35.1228 43.5854C34.8957 43.4758 34.6559 43.3946 34.4089 43.3436C34.2793 43.3086 34.1564 43.2523 34.0453 43.1768C33.9329 43.0942 33.8439 42.9838 33.7868 42.8565C33.6875 42.5974 33.6159 42.3285 33.5733 42.0543C33.5462 41.9193 33.4984 41.7893 33.4315 41.669C33.3634 41.5503 33.2578 41.4576 33.1313 41.4055C32.9478 41.3568 32.759 41.331 32.5692 41.3287C32.4707 41.3215 32.3742 41.2972 32.284 41.257C32.1932 41.2151 32.1154 41.1494 32.0589 41.0669C31.9631 40.9052 31.8911 40.7305 31.8454 40.5482C31.7937 40.3785 31.7067 40.2216 31.5902 40.0878C31.4779 39.9582 31.3398 39.8534 31.1847 39.7801C31.0296 39.7069 30.861 39.6668 30.6895 39.6625C30.3724 39.6549 30.064 39.7669 29.8255 39.9761L29.7988 39.9994L29.7838 39.9661C29.6676 39.7166 29.4997 39.4946 29.2912 39.3149C29.0828 39.1352 28.8385 39.0018 28.5746 38.9236C28.3542 38.8607 28.1237 38.8409 27.8958 38.8653C27.7011 38.8825 27.5112 38.935 27.3353 39.0204C27.089 39.142 26.8829 39.3319 26.7416 39.5674C26.7025 39.6285 26.6684 39.6926 26.6398 39.7592C26.6398 39.7793 26.6232 39.7959 26.6165 39.8093C26.6098 39.8226 26.6081 39.826 26.6065 39.826C26.6058 39.8199 26.6058 39.8137 26.6065 39.8076C26.6065 39.7926 26.6181 39.7759 26.6265 39.7559C26.6513 39.6872 26.6831 39.6212 26.7216 39.5591C26.8589 39.3154 27.0656 39.118 27.3153 38.992C27.4936 38.9032 27.6861 38.8468 27.8841 38.8252C28.1179 38.7987 28.3546 38.8174 28.5813 38.8803C28.8524 38.9585 29.1037 39.0937 29.3183 39.2769C29.5329 39.4602 29.7058 39.6872 29.8255 39.9427L29.7838 39.9344C30.0314 39.7138 30.353 39.5947 30.6845 39.6008C30.955 39.6108 31.2157 39.7048 31.4304 39.8698C31.645 40.0348 31.8029 40.2626 31.8821 40.5215C31.9277 40.697 31.9973 40.8653 32.0889 41.0218C32.1437 41.094 32.2143 41.1527 32.2952 41.1934C32.3761 41.2342 32.4653 41.2559 32.5559 41.257C32.7514 41.2588 32.946 41.2857 33.1346 41.3371C33.2749 41.3942 33.3922 41.4963 33.4682 41.6273C33.5381 41.7534 33.5882 41.8896 33.6167 42.0309C33.6595 42.3002 33.7293 42.5645 33.8252 42.8198C33.878 42.938 33.9601 43.0407 34.0637 43.1184C34.1686 43.1939 34.2861 43.2504 34.4106 43.2852C34.6618 43.3386 34.9054 43.4226 35.1361 43.5354C35.2455 43.6013 35.337 43.6929 35.403 43.8022C35.4654 43.9083 35.5083 44.0247 35.5298 44.1458C35.5656 44.3758 35.5548 44.6106 35.4981 44.8363C35.3947 45.2683 35.2312 45.6536 35.2329 46.0289C35.2329 46.2157 35.2562 46.3925 35.2629 46.5626C35.2748 46.7245 35.255 46.8871 35.2045 47.0413C35.1611 47.1761 35.075 47.2932 34.9593 47.3749C34.8557 47.4359 34.7431 47.4803 34.6258 47.5066C34.5361 47.5283 34.4519 47.5687 34.3789 47.6251C34.3245 47.6684 34.2834 47.7262 34.2605 47.7919C34.2452 47.846 34.2494 47.9038 34.2722 47.9553Z" fill="#375A64"/>
<path d="M38.2233 44.8032C38.2144 44.7914 38.2071 44.7785 38.2016 44.7648L38.1466 44.6514L37.9364 44.2094C37.8447 44.0193 37.7413 43.7791 37.5928 43.5189C37.4387 43.216 37.2023 42.9628 36.9106 42.7884C36.7438 42.6983 36.557 42.6399 36.3652 42.5549C36.266 42.5107 36.1725 42.4547 36.0867 42.3881C35.9974 42.317 35.9264 42.2255 35.8799 42.1212C35.7831 41.9111 35.7798 41.6709 35.7031 41.4541C35.6667 41.3436 35.5982 41.2466 35.5063 41.1755C35.4043 41.107 35.2915 41.0562 35.1727 41.0254C35.0489 40.9895 34.9284 40.9432 34.8124 40.887C34.6918 40.8226 34.5949 40.7216 34.5355 40.5984C34.4121 40.3516 34.4104 40.073 34.3687 39.8095C34.3498 39.677 34.3038 39.5499 34.2336 39.4359C34.1965 39.3809 34.1487 39.3338 34.0931 39.2975C34.0376 39.2611 33.9754 39.2361 33.9101 39.2241C33.6432 39.1674 33.3563 39.2608 33.0578 39.2141C32.9086 39.1881 32.7714 39.1157 32.6658 39.0072C32.5686 38.9003 32.4835 38.7828 32.4123 38.657C32.3442 38.5383 32.2701 38.423 32.1905 38.3117C32.1138 38.203 32.0112 38.1153 31.8919 38.0565C31.6484 37.9448 31.3732 38.0048 31.123 38.0565C30.873 38.135 30.6088 38.1577 30.3491 38.1233C30.1103 38.0619 29.8844 37.9586 29.6819 37.818C29.4939 37.6873 29.2933 37.5756 29.0832 37.4844C28.6931 37.3535 28.2732 37.3402 27.8756 37.4461C27.5462 37.5303 27.2401 37.6876 26.9799 37.9064C26.7842 38.0749 26.6155 38.2723 26.4795 38.4919C26.3969 38.6311 26.3265 38.7773 26.2694 38.9289L26.221 39.0473C26.211 39.074 26.2043 39.0873 26.2043 39.0873C26.2056 39.0728 26.2096 39.0587 26.216 39.0456C26.226 39.0156 26.2394 38.9755 26.2577 38.9255C26.3931 38.5225 26.6325 38.1624 26.9516 37.8814C27.213 37.6552 27.5228 37.492 27.8572 37.4044C28.2639 37.2928 28.6944 37.3038 29.0948 37.4361C29.3083 37.5269 29.5122 37.6387 29.7036 37.7697C29.9029 37.9065 30.1248 38.007 30.3591 38.0665C30.6109 38.0974 30.8663 38.0735 31.108 37.9965C31.2377 37.9632 31.3699 37.9403 31.5033 37.9281C31.6439 37.9145 31.7857 37.9369 31.9153 37.9932C32.0443 38.0552 32.1551 38.1494 32.2372 38.2667C32.3195 38.3816 32.3958 38.5007 32.4657 38.6236C32.5339 38.7437 32.6156 38.8556 32.7092 38.9572C32.8061 39.0563 32.9314 39.1227 33.0678 39.1473C33.3463 39.1924 33.6332 39.099 33.9234 39.1574C34.0701 39.1856 34.1996 39.2708 34.2837 39.3942C34.3594 39.5148 34.4089 39.6501 34.4288 39.7912C34.4788 40.0614 34.4822 40.3366 34.5956 40.5651C34.6504 40.6773 34.7391 40.7694 34.8491 40.8286C34.9615 40.8842 35.0787 40.9294 35.1994 40.9637C35.3222 41.0002 35.4383 41.0566 35.543 41.1305C35.6422 41.2087 35.7164 41.3142 35.7564 41.434C35.8348 41.6659 35.8365 41.9027 35.9232 42.1012C36.0192 42.2896 36.1832 42.4344 36.3819 42.5065C36.5687 42.5916 36.7605 42.6516 36.929 42.745C37.2255 42.9249 37.4649 43.1851 37.6195 43.4956C37.7663 43.7624 37.8663 43.9959 37.9531 44.1944L38.1516 44.6414L38.2033 44.7582L38.2233 44.8032Z" fill="#375A64"/>
<path d="M36.0571 42.6735H36.0938C36.1314 42.6734 36.1685 42.6819 36.2022 42.6985C36.2632 42.737 36.3138 42.7901 36.3493 42.853C36.3848 42.9159 36.4042 42.9866 36.4057 43.0587C36.4053 43.1616 36.3901 43.2638 36.3607 43.3623C36.3267 43.4771 36.3093 43.5962 36.309 43.7159C36.3238 43.8512 36.3732 43.9805 36.4524 44.0912C36.5308 44.2146 36.6325 44.3347 36.7126 44.4798C36.7601 44.5554 36.7895 44.6409 36.7985 44.7298C36.8075 44.8186 36.7958 44.9083 36.7643 44.9918C36.6992 45.1586 36.5741 45.3104 36.5124 45.4922C36.4577 45.6791 36.4774 45.8799 36.5675 46.0526C36.6459 46.2378 36.7593 46.4179 36.8377 46.6247C36.8807 46.7307 36.9028 46.8439 36.9027 46.9583C36.9009 47.0736 36.8747 47.1873 36.826 47.2919C36.714 47.4962 36.5845 47.6904 36.439 47.8723C36.2891 48.0523 36.2123 48.2821 36.2239 48.5161C36.2788 48.7541 36.3617 48.9848 36.4707 49.2033C36.5182 49.3222 36.5436 49.4488 36.5458 49.5769C36.5424 49.7043 36.5099 49.8293 36.4507 49.9422C36.3279 50.1512 36.1807 50.345 36.0121 50.5193C35.8547 50.6841 35.7337 50.8802 35.6568 51.0947C35.6008 51.3106 35.53 51.5223 35.445 51.7285C35.3968 51.8294 35.326 51.9178 35.2382 51.987C35.151 52.049 35.054 52.0958 34.9513 52.1254C34.8554 52.1532 34.7613 52.1866 34.6694 52.2255C34.5834 52.2696 34.5042 52.3257 34.4342 52.3923C34.3045 52.5222 34.1923 52.6686 34.1006 52.8276C34.0072 52.9794 33.9205 53.1295 33.8221 53.263C33.6482 53.5088 33.3996 53.6919 33.1132 53.785C32.8985 53.8561 32.6704 53.8778 32.4461 53.8484C32.3054 53.8314 32.1685 53.7914 32.0408 53.73C31.9963 53.7086 31.9534 53.6841 31.9124 53.6566C32.0792 53.7442 32.2606 53.8008 32.4477 53.8234C32.6679 53.8473 32.8906 53.8222 33.0999 53.75C33.3773 53.6561 33.6171 53.4754 33.7837 53.2346C33.8788 53.1028 33.9639 52.9544 34.0556 52.8009C34.1466 52.6379 34.2588 52.4876 34.3892 52.3539C34.4625 52.2862 34.5458 52.2299 34.636 52.1872C34.7298 52.1457 34.8262 52.1106 34.9246 52.0821C35.0215 52.0539 35.1129 52.0093 35.1948 51.9503C35.2753 51.8861 35.3403 51.8046 35.3849 51.7118C35.467 51.5075 35.5355 51.298 35.5901 51.0847C35.6702 50.863 35.7945 50.6599 35.9554 50.4876C36.1202 50.317 36.2646 50.1278 36.3857 49.9238C36.4399 49.8207 36.4701 49.7067 36.4741 49.5902C36.4723 49.4695 36.448 49.3501 36.4024 49.2383C36.2914 49.0152 36.208 48.7794 36.1538 48.5361C36.1396 48.4112 36.1562 48.2846 36.2022 48.1675C36.2484 48.0553 36.3077 47.9489 36.379 47.8506C36.5227 47.6716 36.6511 47.4808 36.7626 47.2802C36.8084 47.1819 36.8328 47.075 36.8343 46.9666C36.8343 46.8603 36.8139 46.755 36.7743 46.6564C36.7009 46.4579 36.5875 46.2761 36.5074 46.086C36.4135 45.9007 36.3938 45.6865 36.4524 45.4872C36.5208 45.2987 36.6475 45.1536 36.7092 44.9868C36.7391 44.9098 36.7506 44.8269 36.7428 44.7447C36.735 44.6624 36.7081 44.5831 36.6642 44.5132C36.5875 44.3714 36.4974 44.2496 36.409 44.1245C36.3267 44.0078 36.2767 43.8715 36.2639 43.7292C36.2664 43.6065 36.286 43.4846 36.3223 43.3673C36.3523 43.2717 36.3686 43.1723 36.3707 43.0721C36.3706 43.003 36.3539 42.935 36.3219 42.8737C36.29 42.8125 36.2438 42.7598 36.1872 42.7202C36.1483 42.6942 36.1036 42.6781 36.0571 42.6735Z" fill="#375A64"/>
<path d="M28.2843 49.2683C28.312 49.2029 28.364 49.1508 28.4293 49.1228C28.4945 49.0948 28.5681 49.0932 28.6346 49.1182L29.9088 49.5852L30.0523 49.6369C29.9906 49.8972 29.8953 50.1484 29.7687 50.3841C29.711 50.4854 29.6318 50.5728 29.5368 50.6402C29.4417 50.7076 29.333 50.7534 29.2183 50.7744C29.0297 50.7876 28.8418 50.7409 28.6813 50.641C28.4211 50.4742 28.1726 50.2974 28.1159 49.9971C28.0758 49.7837 28.2009 49.4701 28.2843 49.2683Z" fill="#7C4235"/>
<path d="M21.3575 49.25C21.2468 49.2912 21.1437 49.3504 21.0522 49.4251C20.7947 49.6289 20.6175 49.9172 20.5519 50.239C20.506 50.4597 20.5117 50.6881 20.5685 50.9062C20.6389 51.1549 20.7669 51.3834 20.9422 51.5734C21.1339 51.7867 21.3775 51.947 21.6493 52.0387C21.9429 52.1363 22.2591 52.1433 22.5567 52.0587C22.8543 51.9761 23.1229 51.8121 23.3323 51.585C23.5274 51.3725 23.6561 51.1075 23.7025 50.8228C23.742 50.5846 23.7265 50.3405 23.6571 50.1092C23.5877 49.878 23.4663 49.6656 23.3022 49.4885C23.1684 49.3599 23.011 49.2585 22.8386 49.1899C22.7102 49.1365 22.5748 49.1016 22.4366 49.0865C22.3494 49.0755 22.261 49.0783 22.1747 49.0948C22.1446 49.0999 22.1153 49.1094 22.088 49.1232C22.2023 49.1043 22.319 49.1043 22.4333 49.1232C22.5675 49.1423 22.6984 49.1805 22.8219 49.2366C22.9862 49.3067 23.1357 49.4074 23.2622 49.5335C23.4171 49.7066 23.5309 49.9125 23.595 50.1358C23.6591 50.359 23.6719 50.5939 23.6325 50.8228C23.5851 51.0924 23.4619 51.3429 23.2772 51.545C23.0762 51.7605 22.8192 51.9158 22.535 51.9937C22.2526 52.0759 21.9517 52.0701 21.6727 51.977C21.4128 51.8899 21.1793 51.7385 20.9939 51.5367C20.8245 51.3553 20.7005 51.1364 20.6319 50.8979C20.5742 50.6892 20.5656 50.4699 20.6069 50.2574C20.6635 49.9458 20.8254 49.6632 21.0656 49.4568C21.1589 49.3823 21.2563 49.3133 21.3575 49.25Z" fill="#E1E1E1"/>
<path d="M28.1076 46.6265C28.1141 46.7417 28.075 46.8548 27.9989 46.9416C27.9228 47.0283 27.8157 47.0816 27.7007 47.0902C27.6447 47.0972 27.5879 47.0928 27.5336 47.0774C27.4793 47.062 27.4287 47.0359 27.3847 47.0006C27.3407 46.9653 27.3042 46.9215 27.2774 46.8719C27.2506 46.8223 27.234 46.7677 27.2286 46.7116C27.2226 46.5968 27.2616 46.4841 27.3372 46.3976C27.4129 46.311 27.5193 46.2573 27.6339 46.2479C27.69 46.241 27.7469 46.2453 27.8013 46.2607C27.8557 46.276 27.9064 46.3021 27.9505 46.3374C27.9947 46.3727 28.0313 46.4165 28.0583 46.4661C28.0853 46.5158 28.102 46.5703 28.1076 46.6265Z" fill="#0F2832"/>
<path d="M32.3571 46.516C32.3636 46.631 32.3248 46.7439 32.249 46.8305C32.1733 46.9172 32.0666 46.9707 31.9518 46.9797C31.8958 46.9869 31.839 46.9828 31.7846 46.9676C31.7303 46.9524 31.6795 46.9265 31.6353 46.8914C31.5911 46.8562 31.5545 46.8126 31.5275 46.763C31.5005 46.7134 31.4837 46.6589 31.4781 46.6028C31.4721 46.4875 31.5113 46.3744 31.5872 46.2876C31.6632 46.2007 31.7701 46.1468 31.8851 46.1374C31.9411 46.1307 31.9978 46.1352 32.052 46.1507C32.1061 46.1662 32.1567 46.1923 32.2006 46.2276C32.2446 46.2628 32.2811 46.3065 32.308 46.356C32.3348 46.4056 32.3515 46.46 32.3571 46.516Z" fill="#0F2832"/>
<path d="M32.1754 44.89C32.132 44.9567 31.7951 44.7232 31.3614 44.7766C30.9278 44.83 30.6409 45.1102 30.5858 45.0551C30.5592 45.0301 30.5959 44.9134 30.7209 44.7816C30.8824 44.6132 31.0985 44.5075 31.3306 44.4833C31.5627 44.4592 31.7959 44.5182 31.9885 44.6498C32.137 44.7549 32.1904 44.86 32.1754 44.89Z" fill="#0F2832"/>
<path d="M28.0295 45.247C27.9711 45.3154 27.5992 45.0269 27.0771 45.0319C26.5551 45.0369 26.1765 45.3188 26.1181 45.2504C26.0897 45.2204 26.1498 45.0969 26.3149 44.9668C26.5354 44.7986 26.8048 44.7072 27.0821 44.7066C27.3567 44.7052 27.6238 44.7956 27.841 44.9635C28.0028 45.0953 28.0595 45.217 28.0295 45.247Z" fill="#0F2832"/>
<path d="M29.5067 50.6154C29.5067 50.6154 29.4717 50.6705 29.3683 50.7188C29.2179 50.7793 29.0527 50.7926 28.8946 50.7572C28.6589 50.7084 28.4423 50.5926 28.2708 50.4236C28.1656 50.3206 28.0916 50.1899 28.0573 50.0467C28.0268 49.8942 28.0313 49.7368 28.0707 49.5863C28.1097 49.4413 28.1657 49.3013 28.2375 49.1694C28.2553 49.1304 28.2809 49.0955 28.3127 49.0668C28.3446 49.0381 28.382 49.0162 28.4226 49.0026C28.5018 48.9906 28.5828 49.0034 28.6544 49.0393L29.2866 49.2961C29.4863 49.3636 29.6777 49.4537 29.857 49.5646C29.6494 49.5268 29.4465 49.467 29.2515 49.3862L28.6027 49.1527C28.4726 49.0976 28.4109 49.1043 28.3509 49.2311C28.2884 49.3551 28.2392 49.4853 28.2041 49.6197C28.1659 49.743 28.1612 49.8743 28.1905 50.0001C28.2198 50.1258 28.2821 50.2415 28.3709 50.3352C28.5229 50.4911 28.7142 50.6029 28.9246 50.6588C29.0665 50.6983 29.2164 50.6983 29.3583 50.6588C29.45 50.6388 29.5001 50.6037 29.5067 50.6154Z" fill="#0F2832"/>
<path d="M38.0098 36.4019C37.8392 36.2712 37.6526 36.1631 37.4544 36.08C37.2209 35.9901 36.9723 35.946 36.7222 35.95C36.3933 35.953 36.0714 36.0458 35.7915 36.2185L35.7464 36.2468L35.7198 36.2001C35.4902 35.8276 35.1247 35.5591 34.7007 35.4513C34.4598 35.3818 34.2067 35.3662 33.9591 35.4053C33.7115 35.4445 33.4756 35.5377 33.2679 35.6781L33.2146 35.7164L33.1762 35.6631C32.7528 35.1018 32.1301 34.7245 31.4366 34.609C30.8959 34.5212 30.3413 34.6045 29.8504 34.8475C29.4006 35.0673 29.0193 35.4058 28.7479 35.8265L28.7312 35.8549H28.6979C28.1279 35.8748 27.5684 36.0134 27.055 36.2618C26.6541 36.4524 26.2855 36.7046 25.9625 37.0091C25.6831 37.2838 25.4322 37.5861 25.2136 37.9114C25.2136 37.9114 25.222 37.8847 25.2453 37.838C25.2687 37.7913 25.3054 37.7213 25.3604 37.6362C25.518 37.3896 25.7026 37.1613 25.9108 36.9557C26.6538 36.2191 27.6429 35.7831 28.6879 35.7315L28.6378 35.7615C28.9172 35.3165 29.3152 34.9584 29.787 34.7274C30.3025 34.4697 30.8861 34.381 31.4549 34.4739C32.1842 34.5945 32.8383 34.9933 33.2796 35.5863L33.1879 35.5713C33.4117 35.4214 33.6659 35.3226 33.9322 35.2819C34.1986 35.2413 34.4706 35.2598 34.729 35.3362C35.1808 35.4553 35.5673 35.7478 35.8048 36.1501L35.7348 36.1318C36.032 35.9545 36.3728 35.8638 36.7188 35.8699C36.9782 35.8715 37.2346 35.9254 37.4727 36.0283C37.6227 36.0923 37.7626 36.1777 37.888 36.2819C37.9344 36.3156 37.9754 36.3561 38.0098 36.4019Z" fill="#0F2832"/>
<path d="M24.2158 35.6916C24.0573 35.7691 23.8836 35.8107 23.7071 35.8134C23.4641 35.8261 23.2209 35.7903 22.9919 35.7081C22.7628 35.6259 22.5523 35.499 22.3728 35.3347C22.1206 35.0993 21.946 34.7927 21.8724 34.4557C21.7854 34.0644 21.8251 33.6555 21.9858 33.2882C22.1699 32.8807 22.5047 32.5602 22.9199 32.3942C23.3669 32.2051 23.8707 32.2009 24.3209 32.3825L24.2408 32.4009C24.4388 32.1714 24.7097 32.0171 25.0081 31.9639C25.256 31.916 25.5124 31.9379 25.7486 32.0273C25.9795 32.1189 26.1768 32.2789 26.314 32.4859C26.4449 32.6778 26.5241 32.9 26.5443 33.1314C26.5645 33.3627 26.5248 33.5953 26.4291 33.8069L26.3374 33.7252C26.4972 33.6361 26.6764 33.5875 26.8592 33.5838C27.0421 33.58 27.2232 33.6211 27.3865 33.7035C27.5359 33.7734 27.6685 33.8748 27.7753 34.0005C27.8821 34.1263 27.9605 34.2736 28.0053 34.4324C28.0763 34.69 28.0762 34.9622 28.0048 35.2198C27.9334 35.4773 27.7935 35.7108 27.6 35.8951C27.3499 36.1315 27.0384 36.2927 26.701 36.3605C26.613 36.3789 26.5238 36.3912 26.4341 36.3972C26.4031 36.4008 26.3718 36.4008 26.3407 36.3972C26.3407 36.3855 26.4675 36.3838 26.6927 36.3238C27.0142 36.2409 27.3082 36.0746 27.5449 35.8417C27.7219 35.6655 27.8484 35.4451 27.9112 35.2033C27.974 34.9616 27.9708 34.7075 27.9019 34.4674C27.8598 34.3243 27.7873 34.192 27.6895 34.0795C27.5916 33.9669 27.4706 33.8768 27.3348 33.8152C27.1898 33.7429 27.0293 33.7072 26.8674 33.7112C26.7054 33.7153 26.5469 33.759 26.4058 33.8386L26.219 33.952L26.314 33.7552C26.398 33.5634 26.4316 33.3534 26.4117 33.1451C26.3919 32.9367 26.3192 32.7368 26.2006 32.5643C26.0786 32.3818 25.9041 32.2405 25.7003 32.159C25.4873 32.079 25.2563 32.06 25.0331 32.104C24.7667 32.1508 24.5246 32.2881 24.3476 32.4926L24.3142 32.531L24.2675 32.5109C23.8516 32.3415 23.3858 32.3415 22.9699 32.5109C22.5836 32.6617 22.2709 32.9565 22.0976 33.3332C21.9446 33.6748 21.9031 34.0559 21.9792 34.4224C22.0427 34.7398 22.2009 35.0305 22.4328 35.2563C22.7755 35.5828 23.2322 35.7624 23.7054 35.7567C23.8773 35.7518 24.0482 35.73 24.2158 35.6916Z" fill="#0F2832"/>
<path d="M14.5385 40.9803C14.5385 40.9803 14.5218 40.957 14.4985 40.9036C14.4665 40.8269 14.4408 40.7477 14.4217 40.6668C14.3254 40.277 14.3388 39.8681 14.4603 39.4855C14.5819 39.1028 14.8069 38.7612 15.1106 38.4985C15.3461 38.2994 15.6198 38.1505 15.915 38.061C16.2101 37.9716 16.5204 37.9433 16.8269 37.9781L16.7601 38.0148C17.0465 37.4334 17.5326 36.9745 18.1295 36.7222C18.5803 36.5336 19.0751 36.4758 19.5572 36.5554C19.997 36.6259 20.4121 36.8054 20.7648 37.0774H20.6981C21.1432 36.8406 21.6416 36.7217 22.1458 36.7322C22.5352 36.7366 22.9201 36.8153 23.28 36.964C23.5121 37.0586 23.7304 37.1843 23.9288 37.3376C24.0004 37.3908 24.0658 37.4518 24.1239 37.5194C23.8552 37.3214 23.5627 37.1578 23.2533 37.0324C22.8992 36.8999 22.5239 36.8332 22.1458 36.8356C21.661 36.8342 21.1837 36.9553 20.7581 37.1875L20.7214 37.2059L20.6897 37.1808C20.3507 36.926 19.9544 36.7582 19.5355 36.6921C19.0779 36.6208 18.6094 36.6785 18.1829 36.8589C17.6159 37.0974 17.1531 37.5311 16.8786 38.0815L16.8569 38.1249H16.8102C16.5206 38.0911 16.2272 38.1161 15.9475 38.1984C15.6678 38.2806 15.4075 38.4184 15.1823 38.6036C14.8245 38.9037 14.5768 39.3145 14.4784 39.7711C14.412 40.07 14.4069 40.3792 14.4634 40.6801C14.5101 40.8686 14.5485 40.9803 14.5385 40.9803Z" fill="#0F2832"/>
<path d="M50.7777 78.7134L49.6319 76.9805L47.7972 76.0581L47.7288 76.0081C47.4317 75.7917 47.09 75.6446 46.7287 75.5773C46.3674 75.5101 45.9956 75.5245 45.6406 75.6195C44.8917 75.8179 43.8926 76.0665 43.0253 76.2149L41.0405 75.6728V79.5374L51.0279 78.9069L50.7777 78.7134Z" fill="#FF9D8D"/>
<path d="M50.7045 78.6084C50.5781 78.4651 50.4366 78.3359 50.2825 78.2231C50.0123 77.9962 49.6337 77.691 49.2101 77.3608L48.8131 77.0539L48.8014 77.0439H48.7881C48.3794 76.9671 48.0225 76.9054 47.769 76.8654C47.6351 76.8341 47.4978 76.82 47.3604 76.8237C47.4861 76.8792 47.6183 76.9184 47.754 76.9405C48.0042 77.0005 48.3578 77.0772 48.7647 77.1606L48.7397 77.1489L49.1333 77.4608C49.557 77.7944 49.9439 78.0846 50.2275 78.2948C50.3745 78.4166 50.5344 78.5217 50.7045 78.6084Z" fill="#7C4235"/>
<path d="M49.93 78.9452C49.9467 78.9152 49.3028 78.5265 48.4939 78.0779L48.1437 77.8861H48.1303H48.117C47.3848 77.8444 46.841 77.8344 46.8394 77.8644C46.8377 77.8944 47.3781 77.9528 48.1103 78.0062L48.0836 77.9978L48.4322 78.193C49.2428 78.6366 49.9133 78.9752 49.93 78.9452Z" fill="#7C4235"/>
<path d="M62.4037 67.7801C62.2421 67.6891 62.0528 67.6603 61.8715 67.6994C61.6901 67.7384 61.5294 67.8425 61.4196 67.9919L53.3736 78.8867L40.6459 79.0535C40.1371 79.0835 39.52 80.1109 39.9787 80.608L54.351 80.4128L62.6488 68.8826C62.7105 68.7958 62.7533 68.6971 62.7744 68.5927C62.7955 68.4884 62.7945 68.3808 62.7714 68.2768C62.7482 68.1729 62.7036 68.075 62.6402 67.9894C62.5769 67.9039 62.4963 67.8325 62.4037 67.7801Z" fill="#E1E1E1"/>
<path d="M23.8512 55.1577C23.0578 55.2814 22.3162 55.6286 21.7129 56.1584C20.9338 56.9494 20.3477 57.9094 20 58.9638C19.5747 60.2381 19.7665 65.2685 19.7665 66.7246C19.7665 68.1806 20.1367 73.6547 20.3202 74.5637C20.5037 75.4727 20.2018 76.8271 19.7798 77.7077C19.0226 79.2872 20.2018 80.0978 20.2018 80.0978L35.8217 79.9811L35.7583 79.3973C35.6516 78.3832 36.0285 77.3491 35.6432 76.4051C35.0696 75.0211 34.8236 73.5233 34.9244 72.0285C35.1228 69.4266 35.9017 67.6503 35.4247 66.1408C34.6975 63.8374 32.2924 58.6002 29.3853 56.3636C29.3853 56.3636 27.0936 55.8732 26.5765 55.6964C25.3906 55.2844 24.7652 55.0609 23.8512 55.1577Z" fill="#0092EF"/>
<path d="M42.2099 75.2259L28.8666 72.4389L28.5214 60.8553C28.5214 60.8553 28.056 56.1351 25.6859 55.6964L19.9917 62.7867C20.3103 66.3593 20.0201 73.1277 21.6596 75.7263C23.2992 78.3249 24.897 80.4231 28.9417 80.2297C32.9864 80.0362 41.8963 79.9595 41.8963 79.9595L42.2099 75.2259Z" fill="#0092EF"/>
<path d="M28.8926 72.4838C28.9243 72.5088 28.6041 72.9275 28.3339 73.5096C28.0637 74.0917 27.9469 74.6037 27.9069 74.5954C27.8669 74.587 27.9302 74.0516 28.2121 73.4529C28.494 72.8541 28.8676 72.4605 28.8926 72.4838Z" fill="#0F2832"/>
<g opacity="0.3">
<path d="M28.4294 60.36C29.7638 64.4547 29.4736 70.7694 32.0154 73.0961L28.8664 72.4389C28.9265 71.6993 28.9354 70.9565 28.8931 70.2156C28.6363 66.9766 28.6062 63.6841 28.4294 60.36Z" fill="black"/>
</g>
<path d="M28.1336 58.8986C28.2318 59.2028 28.3098 59.5132 28.3671 59.8276C28.443 60.2064 28.4986 60.5888 28.5339 60.9735C28.579 61.4305 28.5856 61.9559 28.6073 62.5446C28.6824 64.9097 28.7924 68.3022 28.9242 72.4369L28.8808 72.3852L42.2241 75.1606L42.2808 75.1723V75.229C42.1824 76.7468 42.0789 78.3446 41.9739 79.9708V80.0342H41.9122L40.2893 80.0526C37.9709 80.0826 35.7059 80.1176 33.5209 80.1643C32.4268 80.1877 31.3538 80.2166 30.3019 80.2511C29.2561 80.2777 28.217 80.3761 27.2113 80.2177C26.715 80.1485 26.2282 80.0231 25.7602 79.8441C25.3072 79.6623 24.8773 79.4277 24.4793 79.1452C23.7349 78.5851 23.0851 77.9094 22.5545 77.1438C22.2943 76.7785 22.0541 76.4132 21.8173 76.0479L21.6505 75.7761C21.5971 75.6827 21.5487 75.5859 21.497 75.4925L21.3469 75.2107C21.3086 75.1123 21.2702 75.0138 21.2335 74.9171C20.9524 74.1689 20.7522 73.3929 20.6364 72.6021C20.4294 71.2484 20.2991 69.8841 20.2461 68.5157C20.1861 67.3098 20.1594 66.2691 20.1294 65.4201C20.0993 64.5711 20.0727 63.919 20.0493 63.4653C20.036 63.2452 20.0243 63.0767 20.0176 62.9649C20.0109 62.8532 20.0176 62.7982 20.0176 62.7982C20.0176 62.7982 20.0276 62.8565 20.0376 62.9649C20.0476 63.0734 20.0626 63.2518 20.0827 63.4653C20.1144 63.9123 20.1544 64.5711 20.1877 65.4201C20.2211 66.2691 20.2611 67.3082 20.3278 68.514C20.3888 69.8783 20.5258 71.2381 20.7381 72.5871C20.8553 73.3707 21.056 74.1395 21.3369 74.8804C21.3736 74.9755 21.412 75.0722 21.4503 75.169C21.4887 75.2657 21.5487 75.3508 21.5971 75.4442C21.6455 75.5376 21.6939 75.6293 21.7472 75.721L21.914 75.9912C22.1459 76.3548 22.3927 76.7168 22.6512 77.0787C23.1764 77.8326 23.8189 78.4977 24.5543 79.0485C24.9449 79.3242 25.3664 79.5531 25.8102 79.7307C26.2705 79.9048 26.7488 80.0268 27.2363 80.0943C28.222 80.2494 29.2528 80.1493 30.3052 80.121C31.3577 80.0926 32.4301 80.0559 33.5243 80.0326C35.7109 79.9825 37.9759 79.9475 40.2943 79.9175L41.9172 79.8991L41.8504 79.9625C41.9572 78.3346 42.0606 76.7385 42.159 75.2207L42.2124 75.2891L28.8692 72.492H28.8275V72.4486C28.7157 68.3122 28.6223 64.9197 28.5573 62.5563C28.5406 61.9659 28.5373 61.4405 28.4989 60.9868C28.4605 60.5331 28.4072 60.1529 28.3521 59.841C28.2971 59.5291 28.2437 59.3006 28.2053 59.1438C28.187 59.0687 28.1737 59.0104 28.162 58.967C28.1506 58.9451 28.1411 58.9222 28.1336 58.8986Z" fill="#0F2832"/>
<path d="M49.5518 103.658L47.572 118.254L52.7542 119.103L56.4403 106.153L49.5518 103.658Z" fill="#FF9D8D"/>
<path d="M33.8381 81.2318C33.8381 81.2318 52.7805 79.9858 56.7134 80.613C59.0902 80.9916 61.14 84.706 59.8441 86.9377C59.2303 87.9951 58.2662 91.2842 58.2662 91.2842L48.092 88.9625L33.8381 81.2318Z" fill="#0F4B64"/>
<path d="M48.0845 91.2841L43.9832 97.5421L48.8101 100.671L54.0473 92.6435L48.0845 91.2841Z" fill="#FF9D8D"/>
<path d="M20.5716 80.0861C20.5716 80.0861 18.5702 88.9076 21.8009 92.3769C24.1009 94.8537 29.7501 94.5868 34.5153 94.5868C39.3439 94.5868 50.4938 94.325 50.4938 94.325C50.4938 94.325 49.9934 97.4273 49.6165 100.96C49.2396 104.492 49.1695 106.722 49.1695 106.722L56.2731 107.316C56.2731 107.316 60.231 95.269 60.8415 92.8822C61.4519 90.4955 61.2434 87.2914 59.1385 86.1022C57.3539 85.1015 43.2835 81.1936 36.5468 80.6131L35.8163 79.986L20.5716 80.0861Z" fill="#0F4B64"/>
<path d="M53.9679 91.4242C53.9679 91.4492 53.6927 91.4876 53.2724 91.6377C53.0264 91.7283 52.7887 91.8399 52.5618 91.9712C52.0046 92.2905 51.5223 92.7256 51.1475 93.2472C50.9946 93.4573 50.8606 93.6806 50.7472 93.9144C50.5537 94.318 50.4853 94.5915 50.4619 94.5815C50.4386 94.5715 50.4619 94.5098 50.4903 94.3847C50.5305 94.2088 50.5863 94.0369 50.6571 93.871C50.7621 93.6239 50.8917 93.3881 51.044 93.1671C51.4192 92.6216 51.9175 92.172 52.4985 91.8545C52.7348 91.726 52.9835 91.6215 53.2407 91.5426C53.4124 91.4881 53.5889 91.4496 53.7677 91.4275C53.8961 91.4175 53.9662 91.4142 53.9679 91.4242Z" fill="#0F2832"/>
<path d="M53.1251 84.1491C53.0934 84.1324 53.2418 83.7905 53.4987 83.4135C53.7555 83.0366 54.0191 82.7731 54.0458 82.7964C54.0724 82.8198 53.864 83.1183 53.6104 83.4902C53.3569 83.8622 53.1584 84.1674 53.1251 84.1491Z" fill="#0F2832"/>
<path d="M61.14 89.5298C61.1294 89.5083 61.122 89.4852 61.1183 89.4614C61.1066 89.4081 61.09 89.3414 61.07 89.2596C61.0283 89.0812 60.9632 88.821 60.8565 88.4924C60.7316 88.0924 60.5638 87.7071 60.3561 87.3432C60.0943 86.8558 59.6961 86.4553 59.2102 86.1907C57.8811 85.6117 56.5135 85.1251 55.1172 84.7346C53.546 84.2659 51.8131 83.7672 49.9834 83.2835C46.3257 82.3128 42.9682 81.6156 40.5214 81.212C39.2988 81.0052 38.3064 80.8634 37.6192 80.7683L36.827 80.6599L36.6218 80.6299C36.5977 80.6282 36.5741 80.6225 36.5518 80.6132C36.5756 80.6107 36.5996 80.6107 36.6235 80.6132L36.8303 80.6316L37.6259 80.715C38.3147 80.7934 39.3105 80.9201 40.538 81.1153C43.7304 81.6342 46.8946 82.3139 50.0184 83.1518C51.8531 83.6355 53.5827 84.1375 55.1522 84.6145C56.5537 85.0107 57.9245 85.5085 59.2536 86.104C59.7508 86.3821 60.1564 86.7987 60.4211 87.3032C60.6266 87.6731 60.7905 88.0647 60.9098 88.4707C60.9863 88.7264 61.0497 88.9858 61.1 89.248C61.115 89.333 61.1267 89.3997 61.135 89.4531C61.1401 89.4783 61.1418 89.5041 61.14 89.5298Z" fill="#0F2832"/>
<path d="M53.1554 118.725L53.3222 118.092C51.1223 117.862 49.1525 117.047 47.6013 115.627L45.8467 119.423L57.557 124.631C58.0057 123.51 53.1554 118.725 53.1554 118.725Z" fill="black"/>
<path d="M45.854 119.423L46.2827 118.496L57.3759 123.847C57.3759 123.847 57.7945 124.299 57.5677 124.631L45.854 119.423Z" fill="#E1E1E1"/>
<path d="M53.0014 118.651C52.973 118.706 52.6678 118.605 52.3092 118.651C51.9506 118.698 51.6854 118.873 51.642 118.828C51.5987 118.783 51.8355 118.495 52.2792 118.441C52.7228 118.388 53.0397 118.606 53.0014 118.651Z" fill="#E1E1E1"/>
<path d="M48.4417 118.244C48.4227 118.284 48.3958 118.32 48.3628 118.349C48.3297 118.379 48.291 118.402 48.2491 118.416C48.2072 118.431 48.1628 118.437 48.1185 118.434C48.0743 118.431 48.0311 118.419 47.9914 118.399C47.9516 118.381 47.9158 118.356 47.8862 118.324C47.8565 118.292 47.8336 118.255 47.8188 118.214C47.804 118.173 47.7976 118.129 47.8001 118.086C47.8025 118.042 47.8137 118 47.8329 117.96C47.8731 117.881 47.9426 117.821 48.0267 117.792C48.1107 117.763 48.2028 117.768 48.2833 117.805C48.323 117.823 48.3588 117.849 48.3885 117.881C48.4181 117.912 48.4411 117.95 48.4558 117.991C48.4706 118.032 48.477 118.075 48.4746 118.119C48.4722 118.162 48.461 118.205 48.4417 118.244Z" fill="#E1E1E1"/>
<path d="M52.929 118.574C52.8385 118.573 52.7489 118.557 52.6638 118.526C52.4177 118.468 52.191 118.347 52.0066 118.174C51.9471 118.114 51.8956 118.046 51.8532 117.972C51.8001 117.892 51.7664 117.8 51.7548 117.704C51.7508 117.642 51.7664 117.581 51.7993 117.529C51.8323 117.477 51.8809 117.436 51.9382 117.414C51.9954 117.392 52.0565 117.382 52.1176 117.385C52.1787 117.388 52.2386 117.403 52.2935 117.43C52.507 117.537 52.6873 117.699 52.8149 117.901C52.9425 118.102 53.0125 118.334 53.0174 118.573L52.8506 118.548C52.9447 118.257 53.1304 118.004 53.3799 117.828C53.6294 117.651 53.9293 117.559 54.2349 117.567C54.3026 117.565 54.3698 117.578 54.4318 117.605C54.4647 117.622 54.4937 117.645 54.5168 117.674C54.5398 117.703 54.5563 117.736 54.5652 117.772C54.5738 117.831 54.5707 117.89 54.5561 117.948C54.5415 118.005 54.5157 118.059 54.4801 118.106C54.3671 118.265 54.2117 118.39 54.0315 118.466C53.7761 118.567 53.5012 118.608 53.2275 118.586C53.1291 118.592 53.0302 118.584 52.934 118.563C53.0282 118.532 53.1268 118.517 53.2259 118.519C53.4851 118.514 53.7406 118.457 53.9781 118.353C54.1319 118.277 54.2627 118.162 54.3567 118.019C54.4041 117.953 54.4244 117.871 54.4134 117.791C54.3984 117.726 54.3434 117.704 54.2349 117.706C54.0093 117.706 53.7878 117.766 53.5923 117.878C53.3969 117.991 53.2343 118.153 53.1208 118.348C53.079 118.421 53.0449 118.498 53.019 118.578C53.0108 118.595 52.9974 118.609 52.9807 118.617C52.9641 118.626 52.9451 118.629 52.9265 118.627C52.9079 118.624 52.8906 118.615 52.8773 118.602C52.8639 118.589 52.8552 118.571 52.8523 118.553C52.8474 118.347 52.7881 118.145 52.6803 117.97C52.5725 117.794 52.42 117.65 52.2385 117.552C52.08 117.467 51.8949 117.539 51.9049 117.677C51.9306 117.827 51.9996 117.965 52.1034 118.076C52.2684 118.243 52.47 118.369 52.6921 118.444C52.7771 118.476 52.8569 118.52 52.929 118.574Z" fill="#E1E1E1"/>
<path d="M53.899 119.465C53.889 119.503 53.5387 119.412 53.1251 119.518C52.7114 119.625 52.4429 119.864 52.4146 119.834C52.3862 119.804 52.633 119.5 53.0917 119.388C53.5504 119.276 53.919 119.435 53.899 119.465Z" fill="#E1E1E1"/>
<path d="M54.5519 120.206C54.5519 120.246 54.2316 120.236 53.8664 120.347C53.5011 120.459 53.2376 120.634 53.2142 120.602C53.1909 120.571 53.431 120.332 53.828 120.217C54.225 120.102 54.5602 120.174 54.5519 120.206Z" fill="#E1E1E1"/>
<path d="M49.7277 99.9656L50.0046 99.3702C47.8747 98.7731 46.0767 97.6389 44.7807 95.9777L42.4106 99.4236L53.0852 106.529C53.7057 105.5 49.7277 99.9656 49.7277 99.9656Z" fill="black"/>
<path d="M42.4106 99.4236L42.9894 98.5896L53.0218 105.732C53.0218 105.732 53.3554 106.249 53.0769 106.537L42.4106 99.4236Z" fill="#E1E1E1"/>
<path d="M49.5863 99.8671C49.5497 99.9155 49.2728 99.7654 48.9042 99.757C48.5356 99.7487 48.2504 99.8704 48.2153 99.8187C48.1803 99.767 48.4622 99.5252 48.9092 99.5435C49.3562 99.5619 49.6297 99.8271 49.5863 99.8671Z" fill="white"/>
<path d="M45.162 98.6981C45.1364 98.7343 45.1039 98.7652 45.0663 98.7887C45.0287 98.8123 44.9867 98.8281 44.9429 98.8352C44.8991 98.8424 44.8543 98.8407 44.8112 98.8303C44.768 98.82 44.7274 98.8011 44.6916 98.7748C44.6209 98.7241 44.5727 98.6478 44.5574 98.5621C44.5422 98.4764 44.561 98.3881 44.6099 98.3161C44.6354 98.2798 44.668 98.249 44.7056 98.2254C44.7432 98.2019 44.7851 98.1861 44.829 98.1789C44.8728 98.1718 44.9175 98.1734 44.9607 98.1838C45.0038 98.1942 45.0445 98.2131 45.0802 98.2394C45.1164 98.2636 45.1472 98.2949 45.171 98.3313C45.1948 98.3677 45.2109 98.4085 45.2186 98.4514C45.2262 98.4942 45.2251 98.5381 45.2154 98.5805C45.2057 98.6229 45.1875 98.6628 45.162 98.6981Z" fill="#E1E1E1"/>
<path d="M49.5362 99.7773C49.447 99.762 49.3611 99.7309 49.2827 99.6855C49.0494 99.5889 48.8461 99.4317 48.6939 99.2302C48.6455 99.1605 48.6063 99.0848 48.5772 99.0051C48.5374 98.9166 48.5197 98.8199 48.5255 98.7232C48.5313 98.6618 48.5566 98.6039 48.5978 98.558C48.6389 98.5121 48.6936 98.4805 48.754 98.468C48.8141 98.4564 48.876 98.4571 48.9359 98.47C48.9958 98.4829 49.0525 98.5077 49.1026 98.543C49.2949 98.6841 49.445 98.8751 49.5367 99.0952C49.6284 99.3154 49.6582 99.5564 49.623 99.7923L49.4562 99.7389C49.5001 99.6537 49.5527 99.5733 49.6129 99.4987C49.7768 99.3011 49.9903 99.1506 50.2315 99.0627C50.4728 98.9748 50.733 98.9526 50.9856 98.9984C51.0531 99.0074 51.1176 99.032 51.1741 99.0701C51.2045 99.0926 51.2294 99.1217 51.2471 99.1552C51.2647 99.1887 51.2745 99.2258 51.2758 99.2636C51.2746 99.3233 51.2616 99.3822 51.2376 99.4368C51.2135 99.4915 51.1789 99.5409 51.1357 99.5821C50.9978 99.7196 50.8247 99.8166 50.6354 99.8624C50.3667 99.9179 50.089 99.9116 49.8231 99.844C49.7249 99.8337 49.6288 99.809 49.5379 99.7706C49.6351 99.7551 49.7342 99.7551 49.8314 99.7706C50.0874 99.8102 50.3487 99.7988 50.6003 99.7373C50.7639 99.6912 50.912 99.6019 51.029 99.4787C51.0872 99.4221 51.1208 99.3448 51.1224 99.2636C51.1224 99.1969 51.069 99.1652 50.9556 99.1485C50.7332 99.1107 50.5048 99.132 50.2932 99.2101C50.0816 99.2883 49.8942 99.4206 49.7497 99.5938C49.6969 99.6596 49.6501 99.7299 49.6096 99.804C49.5986 99.8244 49.5801 99.8397 49.5579 99.8466C49.5358 99.8534 49.5118 99.8513 49.4912 99.8407C49.4746 99.8329 49.461 99.8198 49.4526 99.8036C49.4441 99.7873 49.4413 99.7687 49.4445 99.7506C49.4749 99.5461 49.4505 99.3372 49.3737 99.1453C49.2969 98.9534 49.1705 98.7852 49.0075 98.6581C48.8657 98.548 48.6739 98.5881 48.6606 98.7265C48.6614 98.8785 48.7066 99.0269 48.7907 99.1535C48.9247 99.3463 49.1025 99.5046 49.3094 99.6155C49.3921 99.6587 49.4684 99.7132 49.5362 99.7773Z" fill="white"/>
<path d="M50.3356 100.82C50.3189 100.856 49.9887 100.706 49.5617 100.743C49.1347 100.78 48.8312 100.966 48.8095 100.933C48.7878 100.9 49.0813 100.64 49.5517 100.6C50.022 100.56 50.359 100.793 50.3356 100.82Z" fill="white"/>
<path d="M50.8542 101.662C50.8442 101.7 50.5323 101.637 50.1537 101.685C49.775 101.734 49.4865 101.862 49.4681 101.827C49.4498 101.792 49.7267 101.599 50.1353 101.55C50.5439 101.502 50.8708 101.629 50.8542 101.662Z" fill="white"/>
</svg>
