<svg width="19" height="18" viewBox="0 0 19 18" fill="none" xmlns="http://www.w3.org/2000/svg">
<g clip-path="url(#clip0_853_872)">
<path d="M10.7665 6.5158C10.7665 6.32543 10.6909 6.14287 10.5563 6.00826C10.4217 5.87366 10.2391 5.79803 10.0487 5.79803H4.30663C4.11627 5.79803 3.9337 5.87366 3.79909 6.00826C3.66449 6.14287 3.58887 6.32543 3.58887 6.5158C3.58887 6.70616 3.66449 6.88872 3.79909 7.02333C3.9337 7.15794 4.11627 7.23356 4.30663 7.23356H10.0487C10.2391 7.23356 10.4217 7.15794 10.5563 7.02333C10.6909 6.88872 10.7665 6.70616 10.7665 6.5158ZM9.80947 9.38684C9.80947 9.19648 9.73385 9.01392 9.59924 8.87931C9.46464 8.7447 9.28207 8.66908 9.09171 8.66908H4.30663C4.11627 8.66908 3.9337 8.7447 3.79909 8.87931C3.66449 9.01392 3.58887 9.19648 3.58887 9.38684C3.58887 9.57721 3.66449 9.75977 3.79909 9.89438C3.9337 10.029 4.11627 10.1046 4.30663 10.1046H9.09171C9.28207 10.1046 9.46464 10.029 9.59924 9.89438C9.73385 9.75977 9.80947 9.57721 9.80947 9.38684ZM10.0487 11.5401C10.2391 11.5401 10.4217 11.6158 10.5563 11.7504C10.6909 11.885 10.7665 12.0675 10.7665 12.2579C10.7665 12.4483 10.6909 12.6308 10.5563 12.7654C10.4217 12.9 10.2391 12.9757 10.0487 12.9757H4.30663C4.11627 12.9757 3.9337 12.9 3.79909 12.7654C3.66449 12.6308 3.58887 12.4483 3.58887 12.2579C3.58887 12.0675 3.66449 11.885 3.79909 11.7504C3.9337 11.6158 4.11627 11.5401 4.30663 11.5401H10.0487Z" fill="#232425"/>
<path fill-rule="evenodd" clip-rule="evenodd" d="M3.58881 18H16.03C16.728 18 17.3974 17.7227 17.891 17.2292C18.3845 16.7356 18.6618 16.0662 18.6618 15.3682V10.1046C18.6618 9.91426 18.5862 9.73169 18.4516 9.59709C18.317 9.46248 18.1344 9.38686 17.944 9.38686H14.8337V1.91544C14.8337 0.553604 13.2939 -0.238805 12.1857 0.552647L12.0182 0.672274C11.6515 0.932608 11.2127 1.07214 10.7629 1.07145C10.3132 1.07077 9.87485 0.929897 9.50891 0.668446C8.89797 0.233643 8.16674 0 7.41687 0C6.66701 0 5.93577 0.233643 5.32484 0.668446C4.95889 0.929897 4.52055 1.07077 4.0708 1.07145C3.62105 1.07214 3.18228 0.932608 2.81554 0.672274L2.64806 0.552647C1.53984 -0.238805 0 0.552647 0 1.91544V14.4112C0 15.363 0.378106 16.2758 1.05114 16.9489C1.72417 17.6219 2.637 18 3.58881 18ZM6.15935 1.836C6.5268 1.57517 6.96626 1.43504 7.41687 1.43504C7.86749 1.43504 8.30695 1.57517 8.67439 1.836C9.28373 2.27156 10.0138 2.50612 10.7628 2.50698C11.5118 2.50784 12.2424 2.27495 12.8527 1.84079L13.0202 1.72116C13.0559 1.69571 13.098 1.68058 13.1418 1.67743C13.1855 1.67427 13.2293 1.68321 13.2683 1.70327C13.3074 1.72332 13.3401 1.75372 13.363 1.79114C13.3859 1.82856 13.3981 1.87156 13.3982 1.91544V15.3682C13.3982 15.7989 13.5016 16.2056 13.6853 16.5645H3.58881C3.01772 16.5645 2.47003 16.3376 2.06621 15.9338C1.66239 15.53 1.43552 14.9823 1.43552 14.4112V1.91544C1.43564 1.87156 1.44782 1.82856 1.47072 1.79114C1.49363 1.75372 1.52639 1.72332 1.56542 1.70327C1.60444 1.68321 1.64823 1.67427 1.69199 1.67743C1.73575 1.68058 1.7778 1.69571 1.81354 1.72116L1.98102 1.84079C2.59136 2.27495 3.32195 2.50784 4.07095 2.50698C4.81995 2.50612 5.55002 2.27156 6.15935 1.836ZM14.8337 15.3682V10.8224H17.2263V15.3682C17.2263 15.6855 17.1002 15.9898 16.8759 16.2141C16.6516 16.4384 16.3473 16.5645 16.03 16.5645C15.7127 16.5645 15.4085 16.4384 15.1841 16.2141C14.9598 15.9898 14.8337 15.6855 14.8337 15.3682Z" fill="#232425"/>
</g>
<defs>
<clipPath id="clip0_853_872">
<rect width="18.6618" height="18" fill="white"/>
</clipPath>
</defs>
</svg>
