<svg width="30" height="30" viewBox="0 0 30 30" fill="none" xmlns="http://www.w3.org/2000/svg">
<g clip-path="url(#clip0_740_1557)">
<path d="M0 0H30V30H0V0Z" fill="#F0DB4F"/>
<path d="M27.544 22.845C27.3244 21.4762 26.4318 20.327 23.7883 19.2547C22.87 18.8327 21.8463 18.5304 21.5411 17.8346C21.4328 17.4296 21.4185 17.2015 21.4869 16.9563C21.6837 16.1606 22.6333 15.9125 23.3862 16.1407C23.871 16.3032 24.3301 16.6768 24.6067 17.2728C25.9014 16.4344 25.8985 16.4401 26.8025 15.8641C26.4717 15.3508 26.2949 15.1141 26.0782 14.8945C25.2997 14.0247 24.2388 13.577 22.5421 13.6112C22.2483 13.6483 21.9518 13.6882 21.658 13.7253C20.8111 13.9392 20.004 14.384 19.5307 14.9801C18.1105 16.5913 18.5155 19.4116 20.2436 20.5723C21.9461 21.8498 24.447 22.1407 24.7664 23.3356C25.0772 24.7985 23.6913 25.2719 22.3139 25.1036C21.2987 24.8926 20.7341 24.3764 20.1238 23.4382C19.0003 24.0884 19.0003 24.0884 17.8453 24.7529C18.1191 25.3517 18.4071 25.6226 18.8662 26.1417C21.0392 28.346 26.4774 28.2377 27.4527 24.9012C27.4926 24.7871 27.755 24.0228 27.544 22.845ZM16.3082 13.788H13.5021C13.5021 16.212 13.4908 18.6188 13.4908 21.0428C13.4908 22.5855 13.5706 24 13.3197 24.4334C12.909 25.2861 11.8453 25.1806 11.3605 25.0152C10.8672 24.7728 10.6162 24.4277 10.3254 23.9401C10.2455 23.8004 10.1856 23.692 10.1656 23.6834C9.40427 24.1483 8.64568 24.6159 7.88428 25.0808C8.26358 25.8593 8.82249 26.5352 9.53827 26.9743C10.6077 27.6159 12.0449 27.8127 13.5478 27.4676C14.5259 27.1825 15.37 26.5922 15.812 25.6939C16.4508 24.5161 16.3139 23.0903 16.3082 21.5133C16.3225 18.9411 16.3082 16.3688 16.3082 13.788Z" fill="#323330"/>
</g>
<defs>
<clipPath id="clip0_740_1557">
<rect width="30" height="30" fill="white"/>
</clipPath>
</defs>
</svg>
