<svg width="12" height="20" viewBox="0 0 12 20" fill="none" xmlns="http://www.w3.org/2000/svg">
<path d="M9.18207 19.6042L0.290254 10.7388C0.184713 10.6332 0.109779 10.5189 0.0654516 10.3958C0.0211245 10.2726 -0.000687115 10.1407 1.64909e-05 10C1.64909e-05 9.85928 0.0218281 9.72735 0.0654516 9.60422C0.109075 9.48109 0.184009 9.36675 0.290254 9.26121L9.18207 0.369393C9.42834 0.123131 9.73616 0 10.1056 0C10.4749 0 10.7916 0.131926 11.0554 0.395778C11.3193 0.659631 11.4512 0.967458 11.4512 1.31926C11.4512 1.67106 11.3193 1.97889 11.0554 2.24274L3.29817 10L11.0554 17.7573C11.3017 18.0035 11.4248 18.3071 11.4248 18.6681C11.4248 19.029 11.2929 19.3411 11.029 19.6042C10.7652 19.8681 10.4574 20 10.1056 20C9.75375 20 9.44593 19.8681 9.18207 19.6042Z" fill="#232425"/>
</svg>
