<svg width="33" height="32" viewBox="0 0 33 32" fill="none" xmlns="http://www.w3.org/2000/svg">
<g clip-path="url(#clip0_567_1559)">
<path d="M30.5107 0H3.1755C1.92296 0 0.905273 1.03571 0.905273 2.30714V29.6929C0.905273 30.9643 1.92296 32 3.1755 32H30.5107C31.7633 32 32.7881 30.9643 32.7881 29.6929V2.30714C32.7881 1.03571 31.7633 0 30.5107 0ZM10.5413 27.4286H5.81579V12.1571H10.5484V27.4286H10.5413ZM8.17854 10.0714C6.66268 10.0714 5.43861 8.83571 5.43861 7.32143C5.43861 5.80714 6.66268 4.57143 8.17854 4.57143C9.68728 4.57143 10.9185 5.80714 10.9185 7.32143C10.9185 8.84286 9.69439 10.0714 8.17854 10.0714ZM28.2547 27.4286H23.5292V20C23.5292 18.2286 23.4937 15.95 21.074 15.95C18.6116 15.95 18.2344 17.8786 18.2344 19.8714V27.4286H13.5089V12.1571H18.0423V14.2429H18.1063C18.7397 13.0429 20.284 11.7786 22.5827 11.7786C27.3651 11.7786 28.2547 14.9429 28.2547 19.0571V27.4286Z" fill="#0077B5"/>
</g>
<defs>
<clipPath id="clip0_567_1559">
<rect width="31.8828" height="32" fill="white" transform="translate(0.905273)"/>
</clipPath>
</defs>
</svg>
