<svg width="16" height="20" viewBox="0 0 16 20" fill="none" xmlns="http://www.w3.org/2000/svg">
<g clip-path="url(#clip0_853_1811)">
<path d="M1.90476 20C1.38095 20 0.932382 19.8133 0.559049 19.44C0.185716 19.0667 -0.000633304 18.6184 1.61695e-06 18.0952V8.57143C1.61695e-06 8.04762 0.186668 7.59905 0.560001 7.22571C0.933335 6.85238 1.38159 6.66603 1.90476 6.66667H2.85714V4.7619C2.85714 3.44444 3.32159 2.32127 4.25048 1.39238C5.17937 0.463493 6.30222 -0.00063427 7.61905 6.50534e-07C8.93651 6.50534e-07 10.0597 0.464445 10.9886 1.39333C11.9175 2.32222 12.3816 3.44508 12.381 4.7619V6.66667H13.3333C13.8571 6.66667 14.3057 6.85333 14.679 7.22667C15.0524 7.6 15.2387 8.04825 15.2381 8.57143V18.0952C15.2381 18.619 15.0514 19.0676 14.6781 19.441C14.3048 19.8143 13.8565 20.0006 13.3333 20H1.90476ZM1.90476 18.0952H13.3333V8.57143H1.90476V18.0952ZM7.61905 15.2381C8.14286 15.2381 8.59143 15.0514 8.96476 14.6781C9.3381 14.3048 9.52445 13.8565 9.52381 13.3333C9.52381 12.8095 9.33714 12.361 8.96381 11.9876C8.59048 11.6143 8.14222 11.4279 7.61905 11.4286C7.09524 11.4286 6.64667 11.6152 6.27333 11.9886C5.9 12.3619 5.71365 12.8102 5.71429 13.3333C5.71429 13.8571 5.90095 14.3057 6.27429 14.679C6.64762 15.0524 7.09587 15.2387 7.61905 15.2381ZM4.76191 6.66667H10.4762V4.7619C10.4762 3.96825 10.1984 3.29365 9.64286 2.7381C9.0873 2.18254 8.4127 1.90476 7.61905 1.90476C6.8254 1.90476 6.15079 2.18254 5.59524 2.7381C5.03968 3.29365 4.76191 3.96825 4.76191 4.7619V6.66667Z" fill="#232425"/>
</g>
<defs>
<clipPath id="clip0_853_1811">
<rect width="15.2381" height="20" fill="white"/>
</clipPath>
</defs>
</svg>
