<svg width="18" height="18" viewBox="0 0 18 18" fill="none" xmlns="http://www.w3.org/2000/svg">
<g clip-path="url(#clip0_208_568)">
<path d="M17.6973 10.4753C17.5666 10.3443 17.4026 10.2513 17.2231 10.2064C17.0435 10.1615 16.8552 10.1664 16.6782 10.2205C15.4417 10.5937 14.1271 10.6246 12.8745 10.3098C11.6219 9.99506 10.4781 9.3464 9.56496 8.43294C8.65185 7.51948 8.00362 6.37544 7.68931 5.12269C7.37501 3.86993 7.4064 2.55539 7.78015 1.31906C7.83467 1.14199 7.83989 0.953401 7.79525 0.773581C7.75061 0.593761 7.65779 0.429513 7.52677 0.298501C7.39576 0.16749 7.23151 0.0746708 7.05169 0.0300274C6.87187 -0.0146161 6.68329 -0.00939506 6.50621 0.045129C4.6466 0.616697 3.01469 1.76032 1.84276 3.3132C0.817928 4.67536 0.192961 6.29617 0.037988 7.99375C-0.116985 9.69133 0.204169 11.3985 0.965412 12.9237C1.72666 14.449 2.89787 15.7319 4.34763 16.6285C5.79739 17.5252 7.46834 18.0001 9.17298 18C11.1632 18.0058 13.1003 17.3587 14.6874 16.1579C16.2395 14.9848 17.3819 13.3519 17.9521 11.4919C18.0057 11.3152 18.0103 11.1273 17.9654 10.9483C17.9205 10.7692 17.8279 10.6057 17.6973 10.4753ZM13.461 14.5298C12.0873 15.5639 10.3863 16.0671 8.67105 15.9468C6.95579 15.8264 5.34171 15.0906 4.12585 13.8748C2.91 12.6589 2.17419 11.0448 2.05384 9.32957C1.93349 7.61431 2.4367 5.91329 3.47085 4.53957C4.01502 3.81977 4.68942 3.20846 5.45904 2.73738C5.44375 2.9548 5.43611 3.17306 5.43611 3.39218C5.43881 5.824 6.40604 8.15545 8.1256 9.87502C9.84516 11.5946 12.1766 12.5618 14.6084 12.5645C14.8276 12.5645 15.0458 12.5569 15.2632 12.5416C14.7924 13.3114 14.181 13.9858 13.461 14.5298Z" fill="#232425"/>
</g>
<defs>
<clipPath id="clip0_208_568">
<rect width="17.996" height="18" fill="white"/>
</clipPath>
</defs>
</svg>
