<svg width="19" height="18" viewBox="0 0 19 18" fill="none" xmlns="http://www.w3.org/2000/svg">
<g clip-path="url(#clip0_853_855)">
<path d="M1.9726 16.0274H3.35342L11.8603 7.52055L10.4795 6.13973L1.9726 14.6466V16.0274ZM16.0767 6.09041L11.8849 1.94795L13.2658 0.567123C13.6438 0.189041 14.1084 0 14.6594 0C15.2104 0 15.6746 0.189041 16.0521 0.567123L17.4329 1.94795C17.811 2.32603 18.0082 2.78236 18.0247 3.31693C18.0411 3.85151 17.8603 4.30751 17.4822 4.68493L16.0767 6.09041ZM14.6466 7.54521L4.19178 18H0V13.8082L10.4548 3.35342L14.6466 7.54521ZM11.1699 6.83014L10.4795 6.13973L11.8603 7.52055L11.1699 6.83014Z" fill="#232425"/>
</g>
<defs>
<clipPath id="clip0_853_855">
<rect width="18.0257" height="18" fill="white"/>
</clipPath>
</defs>
</svg>
