<svg width="19" height="15" viewBox="0 0 19 15" fill="none" xmlns="http://www.w3.org/2000/svg">
<g clip-path="url(#clip0_851_441)">
<path d="M17.9427 4.4707C17.8054 4.35097 17.6356 4.27475 17.4549 4.25172C17.2742 4.22869 17.0907 4.25989 16.9277 4.34135L13.1074 6.24354L9.91776 0.945553C9.83577 0.809604 9.72005 0.697147 9.58181 0.619083C9.44356 0.54102 9.2875 0.5 9.12874 0.5C8.96998 0.5 8.81391 0.54102 8.67567 0.619083C8.53743 0.697147 8.4217 0.809604 8.33971 0.945553L5.15011 6.24582L1.33127 4.34363C1.1687 4.26289 0.985909 4.23197 0.80583 4.25474C0.625752 4.27751 0.45641 4.35296 0.319055 4.47162C0.1817 4.59028 0.0824521 4.74687 0.0337652 4.92173C-0.0149216 5.09659 -0.0108782 5.28194 0.0453879 5.45451L2.86063 14.0798C2.88894 14.1665 2.93634 14.2456 2.99935 14.3115C3.06236 14.3774 3.13936 14.4283 3.22466 14.4604C3.30997 14.4926 3.4014 14.5051 3.49221 14.4972C3.58302 14.4893 3.67089 14.461 3.74934 14.4146C3.76836 14.4032 5.71392 13.2824 9.12874 13.2824C12.5436 13.2824 14.4891 14.4032 14.5066 14.4138C14.5851 14.4607 14.6731 14.4893 14.7641 14.4975C14.8552 14.5058 14.9469 14.4934 15.0325 14.4613C15.1181 14.4292 15.1954 14.3782 15.2586 14.3122C15.3218 14.2461 15.3693 14.1667 15.3976 14.0798L18.2128 5.45679C18.2707 5.28417 18.276 5.09824 18.2279 4.92264C18.1798 4.74704 18.0805 4.58972 17.9427 4.4707ZM12.7688 10.6041C12.7439 10.7449 12.6703 10.8725 12.5608 10.9645C12.4513 11.0564 12.3129 11.1069 12.17 11.1071C12.1343 11.107 12.0986 11.104 12.0634 11.0979C10.1192 10.7642 8.13222 10.7642 6.18795 11.0979C6.10921 11.1118 6.02851 11.1101 5.95045 11.0928C5.87239 11.0755 5.79851 11.043 5.73301 10.9971C5.60073 10.9045 5.51066 10.7631 5.48261 10.6041C5.45457 10.4451 5.49083 10.2815 5.58344 10.1492C5.67605 10.0169 5.81741 9.92684 5.97642 9.89879C8.06067 9.54067 10.1907 9.54067 12.275 9.89879C12.354 9.91231 12.4295 9.94131 12.4973 9.98411C12.5651 10.0269 12.6238 10.0827 12.6699 10.1482C12.7161 10.2138 12.7489 10.2878 12.7663 10.366C12.7838 10.4442 12.7857 10.5252 12.7718 10.6041H12.7688Z" fill="#FFB933"/>
</g>
<defs>
<clipPath id="clip0_851_441">
<rect width="18.2605" height="14" fill="white" transform="translate(0 0.5)"/>
</clipPath>
</defs>
</svg>
