<svg width="18" height="18" viewBox="0 0 18 18" fill="none" xmlns="http://www.w3.org/2000/svg">
<g clip-path="url(#clip0_853_861)">
<path d="M9 0C7.8181 0 6.64778 0.232792 5.55585 0.685084C4.46392 1.13738 3.47177 1.80031 2.63604 2.63604C0.948211 4.32387 0 6.61305 0 9C0 11.3869 0.948211 13.6761 2.63604 15.364C3.47177 16.1997 4.46392 16.8626 5.55585 17.3149C6.64778 17.7672 7.8181 18 9 18C11.3869 18 13.6761 17.0518 15.364 15.364C17.0518 13.6761 18 11.3869 18 9C18 7.8181 17.7672 6.64778 17.3149 5.55585C16.8626 4.46392 16.1997 3.47177 15.364 2.63604C14.5282 1.80031 13.5361 1.13738 12.4442 0.685084C11.3522 0.232792 10.1819 0 9 0ZM4.563 14.652C4.95 13.842 7.308 13.05 9 13.05C10.692 13.05 13.05 13.842 13.437 14.652C12.1764 15.6564 10.6118 16.2023 9 16.2C7.326 16.2 5.787 15.624 4.563 14.652ZM14.724 13.347C13.437 11.781 10.314 11.25 9 11.25C7.686 11.25 4.563 11.781 3.276 13.347C2.31857 12.1002 1.7997 10.572 1.8 9C1.8 5.031 5.031 1.8 9 1.8C12.969 1.8 16.2 5.031 16.2 9C16.2 10.638 15.642 12.15 14.724 13.347ZM9 3.6C7.254 3.6 5.85 5.004 5.85 6.75C5.85 8.496 7.254 9.9 9 9.9C10.746 9.9 12.15 8.496 12.15 6.75C12.15 5.004 10.746 3.6 9 3.6ZM9 8.1C8.64196 8.1 8.29858 7.95777 8.04541 7.70459C7.79223 7.45142 7.65 7.10804 7.65 6.75C7.65 6.39196 7.79223 6.04858 8.04541 5.79541C8.29858 5.54223 8.64196 5.4 9 5.4C9.35804 5.4 9.70142 5.54223 9.95459 5.79541C10.2078 6.04858 10.35 6.39196 10.35 6.75C10.35 7.10804 10.2078 7.45142 9.95459 7.70459C9.70142 7.95777 9.35804 8.1 9 8.1Z" fill="#232425"/>
</g>
<defs>
<clipPath id="clip0_853_861">
<rect width="18" height="18" fill="white"/>
</clipPath>
</defs>
</svg>
