<svg width="21" height="18" viewBox="0 0 21 18" fill="none" xmlns="http://www.w3.org/2000/svg">
<g clip-path="url(#clip0_208_562)">
<path d="M19.5652 16.4348H18.7826V0.782609C18.7826 0.575048 18.7002 0.375989 18.5534 0.229221C18.4066 0.0824533 18.2076 0 18 0H12.5217C12.3142 0 12.1151 0.0824533 11.9684 0.229221C11.8216 0.375989 11.7391 0.575048 11.7391 0.782609V4.69565H7.04348C6.83592 4.69565 6.63686 4.77811 6.49009 4.92487C6.34332 5.07164 6.26087 5.2707 6.26087 5.47826V9.3913H2.34783C2.14027 9.3913 1.94121 9.47376 1.79444 9.62052C1.64767 9.76729 1.56522 9.96635 1.56522 10.1739V16.4348H0.782609C0.575048 16.4348 0.375988 16.5172 0.229221 16.664C0.0824531 16.8108 0 17.0098 0 17.2174C0 17.425 0.0824531 17.624 0.229221 17.7708C0.375988 17.9175 0.575048 18 0.782609 18H19.5652C19.7728 18 19.9718 17.9175 20.1186 17.7708C20.2654 17.624 20.3478 17.425 20.3478 17.2174C20.3478 17.0098 20.2654 16.8108 20.1186 16.664C19.9718 16.5172 19.7728 16.4348 19.5652 16.4348ZM13.3043 1.56522H17.2174V16.4348H13.3043V1.56522ZM7.82609 6.26087H11.7391V16.4348H7.82609V6.26087ZM3.13043 10.9565H6.26087V16.4348H3.13043V10.9565Z" fill="#232425"/>
</g>
<defs>
<clipPath id="clip0_208_562">
<rect width="20.3478" height="18" fill="white"/>
</clipPath>
</defs>
</svg>
