<svg width="20" height="20" viewBox="0 0 20 20" fill="none" xmlns="http://www.w3.org/2000/svg">
<g clip-path="url(#clip0_853_889)">
<path d="M18.041 10.6599C17.8807 10.4774 17.7923 10.2429 17.7923 10C17.7923 9.75712 17.8807 9.52255 18.041 9.34009L19.3208 7.90029C19.4619 7.74298 19.5494 7.54504 19.571 7.33487C19.5925 7.1247 19.547 6.91311 19.4408 6.73044L17.4411 3.27092C17.336 3.08846 17.176 2.94384 16.9839 2.85766C16.7918 2.77148 16.5774 2.74814 16.3712 2.79098L14.4915 3.17093C14.2523 3.22035 14.0033 3.18052 13.7915 3.05894C13.5796 2.93737 13.4196 2.74247 13.3416 2.51102L12.7317 0.681267C12.6646 0.482673 12.5368 0.310183 12.3664 0.188176C12.1959 0.0661699 11.9915 0.000818685 11.7818 0.00135977H7.78239C7.56436 -0.0100207 7.34859 0.0502795 7.16804 0.17305C6.98749 0.295821 6.8521 0.474315 6.78253 0.681267L6.2226 2.51102C6.14462 2.74247 5.98461 2.93737 5.77278 3.05894C5.56095 3.18052 5.31195 3.22035 5.07276 3.17093L3.14302 2.79098C2.9476 2.76336 2.74838 2.7942 2.57045 2.87961C2.39252 2.96501 2.24385 3.10117 2.14316 3.27092L0.143431 6.73044C0.0346063 6.91107 -0.014325 7.12148 0.00363305 7.33159C0.0215911 7.5417 0.105519 7.74075 0.243418 7.90029L1.51324 9.34009C1.67354 9.52255 1.76195 9.75712 1.76195 10C1.76195 10.2429 1.67354 10.4774 1.51324 10.6599L0.243418 12.0997C0.105519 12.2593 0.0215911 12.4583 0.00363305 12.6684C-0.014325 12.8785 0.0346063 13.0889 0.143431 13.2696L2.14316 16.7291C2.24824 16.9115 2.40824 17.0562 2.60035 17.1423C2.79246 17.2285 3.00687 17.2519 3.21301 17.209L5.09276 16.8291C5.33194 16.7796 5.58095 16.8195 5.79278 16.9411C6.00461 17.0626 6.16461 17.2575 6.2426 17.489L6.85252 19.3187C6.92209 19.5257 7.05749 19.7042 7.23803 19.827C7.41858 19.9497 7.63435 20.01 7.85238 19.9986H11.8518C12.0615 19.9992 12.2659 19.9338 12.4364 19.8118C12.6068 19.6898 12.7346 19.5173 12.8017 19.3187L13.4116 17.489C13.4896 17.2575 13.6496 17.0626 13.8615 16.9411C14.0733 16.8195 14.3223 16.7796 14.5615 16.8291L16.4412 17.209C16.6474 17.2519 16.8618 17.2285 17.0539 17.1423C17.246 17.0562 17.406 16.9115 17.5111 16.7291L19.5108 13.2696C19.617 13.0869 19.6625 12.8753 19.641 12.6651C19.6194 12.455 19.5318 12.257 19.3908 12.0997L18.041 10.6599ZM16.5512 11.9997L17.3511 12.8996L16.0713 15.1193L14.8914 14.8793C14.1713 14.7321 13.4222 14.8545 12.7863 15.2231C12.1504 15.5917 11.672 16.181 11.4419 16.8791L11.0619 17.9989H8.50229L8.14234 16.8591C7.91223 16.161 7.43382 15.5717 6.79793 15.2031C6.16204 14.8345 5.41294 14.7121 4.69281 14.8593L3.51297 15.0993L2.21315 12.8896L3.01304 11.9897C3.50493 11.4398 3.77687 10.7278 3.77687 9.99C3.77687 9.25217 3.50493 8.54022 3.01304 7.99027L2.21315 7.0904L3.49298 4.89069L4.67282 5.13066C5.39294 5.27786 6.14204 5.15554 6.77793 4.78691C7.41382 4.41828 7.89223 3.829 8.12234 3.13093L8.50229 2.00109H11.0619L11.4419 3.14093C11.672 3.839 12.1504 4.42827 12.7863 4.79691C13.4222 5.16554 14.1713 5.28786 14.8914 5.14066L16.0713 4.90069L17.3511 7.12039L16.5512 8.02027C16.0648 8.56895 15.7963 9.27678 15.7963 10.01C15.7963 10.7432 16.0648 11.451 16.5512 11.9997ZM9.78212 6.00054C8.9911 6.00054 8.21785 6.23511 7.56014 6.67457C6.90243 7.11404 6.38981 7.73867 6.0871 8.46947C5.7844 9.20028 5.70519 10.0044 5.85951 10.7803C6.01383 11.5561 6.39474 12.2687 6.95408 12.828C7.51341 13.3874 8.22605 13.7683 9.00187 13.9226C9.77768 14.0769 10.5818 13.9977 11.3126 13.695C12.0435 13.3923 12.6681 12.8797 13.1075 12.222C13.547 11.5643 13.7816 10.791 13.7816 10C13.7816 8.93928 13.3602 7.922 12.6102 7.17196C11.8601 6.42191 10.8428 6.00054 9.78212 6.00054ZM9.78212 11.9997C9.38661 11.9997 8.99998 11.8824 8.67113 11.6627C8.34228 11.443 8.08597 11.1307 7.93461 10.7653C7.78326 10.3999 7.74366 9.99778 7.82082 9.60987C7.89798 9.22196 8.08843 8.86565 8.3681 8.58598C8.64777 8.30631 9.00408 8.11586 9.39199 8.0387C9.7799 7.96154 10.182 8.00114 10.5474 8.15249C10.9128 8.30385 11.2251 8.56016 11.4448 8.88901C11.6646 9.21786 11.7818 9.60449 11.7818 10C11.7818 10.5304 11.5712 11.039 11.1961 11.414C10.8211 11.789 10.3125 11.9997 9.78212 11.9997Z" fill="#232425"/>
</g>
<defs>
<clipPath id="clip0_853_889">
<rect width="19.6462" height="20" fill="white"/>
</clipPath>
</defs>
</svg>
