<svg width="33" height="28" viewBox="0 0 33 28" fill="none" xmlns="http://www.w3.org/2000/svg">
<g clip-path="url(#clip0_208_555)">
<path d="M30.3324 7.1252V2.33326C30.3324 1.71444 30.0866 1.12097 29.649 0.683397C29.2115 0.245825 28.618 0 27.9992 0H2.33326C1.71444 0 1.12097 0.245825 0.683397 0.683397C0.245825 1.12097 0 1.71444 0 2.33326V20.9994C0 21.6182 0.245825 22.2117 0.683397 22.6492C1.12097 23.0868 1.71444 23.3326 2.33326 23.3326H18.6661V26.8325C18.666 27.0315 18.7167 27.2272 18.8135 27.401C18.9103 27.5748 19.05 27.721 19.2192 27.8256C19.3884 27.9303 19.5816 27.9899 19.7804 27.9988C19.9791 28.0078 20.1769 27.9657 20.3548 27.8767L24.4993 25.803L28.6437 27.8767C28.8217 27.9657 29.0194 28.0078 29.2182 27.9988C29.4169 27.9899 29.6101 27.9303 29.7793 27.8256C29.9486 27.721 30.0882 27.5748 30.185 27.401C30.2818 27.2272 30.3326 27.0315 30.3324 26.8325V18.5407C31.828 17.0173 32.6659 14.9678 32.6659 12.8329C32.6659 10.6981 31.828 8.6486 30.3324 7.1252ZM15.1662 15.1662H6.99979C6.69038 15.1662 6.39364 15.0433 6.17486 14.8245C5.95607 14.6057 5.83316 14.309 5.83316 13.9996C5.83316 13.6902 5.95607 13.3934 6.17486 13.1746C6.39364 12.9559 6.69038 12.8329 6.99979 12.8329H15.1662C15.4756 12.8329 15.7724 12.9559 15.9911 13.1746C16.2099 13.3934 16.3328 13.6902 16.3328 13.9996C16.3328 14.309 16.2099 14.6057 15.9911 14.8245C15.7724 15.0433 15.4756 15.1662 15.1662 15.1662ZM15.1662 10.4997H6.99979C6.69038 10.4997 6.39364 10.3768 6.17486 10.158C5.95607 9.9392 5.83316 9.64246 5.83316 9.33305C5.83316 9.02364 5.95607 8.72691 6.17486 8.50812C6.39364 8.28934 6.69038 8.16642 6.99979 8.16642H15.1662C15.4756 8.16642 15.7724 8.28934 15.9911 8.50812C16.2099 8.72691 16.3328 9.02364 16.3328 9.33305C16.3328 9.64246 16.2099 9.9392 15.9911 10.158C15.7724 10.3768 15.4756 10.4997 15.1662 10.4997ZM27.9992 24.9455L25.0213 23.4551C24.8593 23.374 24.6805 23.3318 24.4993 23.3318C24.318 23.3318 24.1393 23.374 23.9772 23.4551L20.9994 24.9455V20.2104C22.093 20.7299 23.2885 20.9994 24.4993 20.9994C25.71 20.9994 26.9055 20.7299 27.9992 20.2104V24.9455ZM24.4993 18.6661C23.3456 18.6661 22.2178 18.324 21.2585 17.683C20.2993 17.0421 19.5516 16.1311 19.1101 15.0652C18.6686 13.9993 18.5531 12.8265 18.7782 11.695C19.0033 10.5634 19.5588 9.52407 20.3746 8.70828C21.1904 7.8925 22.2297 7.33695 23.3613 7.11187C24.4928 6.8868 25.6656 7.00232 26.7315 7.44381C27.7974 7.88531 28.7084 8.63296 29.3494 9.59222C29.9903 10.5515 30.3324 11.6793 30.3324 12.8329C30.3324 14.38 29.7179 15.8637 28.6239 16.9576C27.53 18.0515 26.0463 18.6661 24.4993 18.6661Z" fill="#0092EF"/>
</g>
<defs>
<clipPath id="clip0_208_555">
<rect width="32.6659" height="28" fill="white"/>
</clipPath>
</defs>
</svg>
